<svg width="18" height="18" viewBox="0 0 18 18" fill="none" xmlns="http://www.w3.org/2000/svg">
<path d="M7.8244 0.83386C8.18565 -0.277952 9.75857 -0.277954 10.1198 0.833858L11.4105 4.80631C11.5721 5.30353 12.0355 5.64017 12.5583 5.64017H16.7351C17.9042 5.64017 18.3902 7.1361 17.4445 7.82324L14.0653 10.2783C13.6423 10.5856 13.4654 11.1303 13.6269 11.6276L14.9176 15.6C15.2789 16.7118 14.0064 17.6364 13.0606 16.9492L9.68143 14.4941C9.25848 14.1868 8.68575 14.1868 8.26279 14.4941L4.88362 16.9492C3.93786 17.6364 2.66534 16.7118 3.02659 15.6L4.31732 11.6276C4.47887 11.1303 4.30189 10.5856 3.87893 10.2783L0.499763 7.82324C-0.446001 7.1361 0.0400561 5.64017 1.20908 5.64017H5.38597C5.90877 5.64017 6.37212 5.30353 6.53367 4.80631L7.8244 0.83386Z" fill="#FFBF16"/>
</svg>
