<svg width="20" height="21" viewBox="0 0 20 21" fill="none" xmlns="http://www.w3.org/2000/svg">
<path d="M10.0003 2C5.40533 2 1.66699 5.73833 1.66699 10.3333C1.66699 14.9283 5.40533 18.6667 10.0003 18.6667C14.5953 18.6667 18.3337 14.9283 18.3337 10.3333C18.3337 5.73833 14.5953 2 10.0003 2ZM10.0003 17C6.32449 17 3.33366 14.0092 3.33366 10.3333C3.33366 6.6575 6.32449 3.66667 10.0003 3.66667C13.6762 3.66667 16.667 6.6575 16.667 10.3333C16.667 14.0092 13.6762 17 10.0003 17Z" fill="#0053E2"/>
<path d="M8.33273 11.6999L7.02621 10.3522C6.69304 10.0085 6.14142 10.0091 5.80902 10.3536C5.49189 10.6822 5.49254 11.2031 5.81049 11.531L7.61577 13.3924C8.00892 13.7978 8.65952 13.7974 9.05223 13.3916L13.3529 8.94764C13.6706 8.61935 13.6706 8.09822 13.3529 7.76994C13.0201 7.42606 12.4687 7.42606 12.1359 7.76994L8.33273 11.6999Z" fill="#0053E2"/>
</svg>
