<svg width="20" height="21" viewBox="0 0 20 21" fill="none" xmlns="http://www.w3.org/2000/svg">
<path d="M10 13C11.3807 13 12.5 11.8807 12.5 10.5C12.5 9.11929 11.3807 8 10 8C8.61929 8 7.5 9.11929 7.5 10.5C7.5 11.8807 8.61929 13 10 13Z" fill="#0053E2"/>
<path d="M19.3372 10.2875C18.6021 8.38603 17.326 6.74164 15.6665 5.55755C14.007 4.37347 12.0369 3.70161 9.99973 3.625C7.96256 3.70161 5.99248 4.37347 4.33299 5.55755C2.67349 6.74164 1.39733 8.38603 0.662234 10.2875C0.612589 10.4248 0.612589 10.5752 0.662234 10.7125C1.39733 12.614 2.67349 14.2584 4.33299 15.4424C5.99248 16.6265 7.96256 17.2984 9.99973 17.375C12.0369 17.2984 14.007 16.6265 15.6665 15.4424C17.326 14.2584 18.6021 12.614 19.3372 10.7125C19.3869 10.5752 19.3869 10.4248 19.3372 10.2875ZM9.99973 14.5625C9.19625 14.5625 8.41081 14.3242 7.74273 13.8778C7.07466 13.4315 6.55395 12.797 6.24647 12.0547C5.93899 11.3123 5.85854 10.4955 6.01529 9.70745C6.17205 8.9194 6.55896 8.19553 7.12711 7.62738C7.69526 7.05923 8.41913 6.67231 9.20718 6.51556C9.99523 6.35881 10.8121 6.43926 11.5544 6.74674C12.2967 7.05422 12.9312 7.57492 13.3776 8.243C13.824 8.91107 14.0622 9.69651 14.0622 10.5C14.0606 11.5769 13.632 12.6093 12.8705 13.3708C12.109 14.1323 11.0767 14.5608 9.99973 14.5625Z" fill="#0053E2"/>
</svg>
