<svg width="20" height="21" viewBox="0 0 20 21" fill="none" xmlns="http://www.w3.org/2000/svg">
<path d="M12.5 13.8344L9.16667 17.1677H15.8333C16.75 17.1677 17.5 16.4177 17.5 15.501C17.5 14.5844 16.75 13.8344 15.8333 13.8344H12.5ZM10.05 6.49271L2.74167 13.801C2.59167 13.951 2.5 14.1677 2.5 14.3844V16.3344C2.5 16.7927 2.875 17.1677 3.33333 17.1677H5.28333C5.50833 17.1677 5.71667 17.076 5.875 16.926L13.1833 9.61771L10.05 6.49271ZM15.5917 7.20104C15.6689 7.12395 15.7302 7.03237 15.772 6.93156C15.8138 6.83075 15.8354 6.72268 15.8354 6.61354C15.8354 6.5044 15.8138 6.39633 15.772 6.29552C15.7302 6.19471 15.6689 6.10313 15.5917 6.02604L13.6417 4.07604C13.5646 3.99879 13.473 3.9375 13.3722 3.89568C13.2714 3.85386 13.1633 3.83234 13.0542 3.83234C12.945 3.83234 12.837 3.85386 12.7361 3.89568C12.6353 3.9375 12.5438 3.99879 12.4667 4.07604L10.9417 5.60104L14.0667 8.72604L15.5917 7.20104Z" fill="#004ED5"/>
</svg>
