<svg width="584" height="302" viewBox="0 0 584 302" fill="none" xmlns="http://www.w3.org/2000/svg">
<path d="M488.665 115.785L473.396 127.179L472.559 124.273L481.01 110.869L488.665 115.785Z" fill="#FFBF16"/>
<path d="M488.665 115.785L473.396 127.179L472.559 124.273L481.01 110.869L488.665 115.785Z" fill="black" fill-opacity="0.4"/>
<path d="M466.783 107.662L520.309 127.422C522.826 128.35 525.745 126.975 525.837 124.817L528.905 51.3185C529.005 48.9195 525.597 47.4103 522.976 48.693L436.071 91.2439C433.501 92.5024 433.729 95.4586 436.473 96.4737L466.781 107.663" fill="#FFBF16"/>
<path d="M518.509 60.1079L481.845 113.225L473.589 126.955C472.936 127.927 471.06 127.689 470.844 126.607L467.082 107.773L518.509 60.1079Z" fill="#FFBF16"/>
<path d="M518.509 60.1079L481.845 113.225L473.589 126.955C472.936 127.927 471.06 127.689 470.844 126.607L467.082 107.773L518.509 60.1079Z" fill="black" fill-opacity="0.1"/>
<path d="M233.722 134.423C233.67 134.412 233.621 134.391 233.579 134.357C233.388 134.211 233.378 133.895 233.554 133.651C233.882 133.199 234.217 132.745 234.55 132.299C234.73 132.059 235.026 131.988 235.213 132.137C235.4 132.288 235.405 132.605 235.225 132.846C234.896 133.285 234.565 133.735 234.242 134.18C234.106 134.367 233.898 134.457 233.724 134.421L233.722 134.423ZM329.67 153.908C329.661 153.906 329.652 153.904 329.642 153.902C329.062 153.737 328.481 153.539 327.916 153.317C327.692 153.229 327.615 152.938 327.744 152.669C327.873 152.4 328.158 152.253 328.384 152.341C328.927 152.555 329.487 152.745 330.045 152.904C330.278 152.971 330.377 153.249 330.267 153.524C330.159 153.789 329.897 153.957 329.669 153.91L329.67 153.908ZM334.169 154.622C333.956 154.578 333.832 154.358 333.889 154.099C333.951 153.815 334.205 153.594 334.456 153.604C335.056 153.629 335.674 153.627 336.293 153.601C336.548 153.59 336.721 153.81 336.677 154.094C336.633 154.377 336.392 154.616 336.137 154.626C335.494 154.654 334.852 154.656 334.228 154.629C334.207 154.629 334.186 154.626 334.166 154.622L334.169 154.622ZM324.067 151.262C324.022 151.252 323.98 151.235 323.941 151.209C323.453 150.878 322.966 150.519 322.494 150.143C322.307 149.994 322.3 149.676 322.478 149.435C322.656 149.194 322.952 149.12 323.141 149.269C323.6 149.635 324.072 149.983 324.545 150.303C324.742 150.437 324.768 150.748 324.603 150.997C324.47 151.197 324.252 151.298 324.069 151.26L324.067 151.262ZM340.806 153.948C340.635 153.912 340.514 153.761 340.513 153.551C340.511 153.275 340.72 153 340.978 152.94C341.598 152.796 342.232 152.626 342.861 152.437C343.119 152.36 343.344 152.517 343.361 152.789C343.38 153.062 343.185 153.347 342.928 153.424C342.279 153.62 341.626 153.795 340.985 153.943C340.922 153.957 340.861 153.959 340.806 153.948ZM319.411 147.154C319.339 147.139 319.273 147.104 319.222 147.046C318.823 146.606 318.427 146.141 318.043 145.664C317.889 145.476 317.935 145.151 318.143 144.94C318.351 144.728 318.644 144.711 318.798 144.9C319.173 145.366 319.562 145.821 319.952 146.252C320.114 146.432 320.082 146.755 319.88 146.974C319.743 147.122 319.563 147.186 319.411 147.154ZM368.88 156.468C368.641 156.418 368.524 156.152 368.621 155.872C368.717 155.592 368.99 155.407 369.23 155.457C369.809 155.577 370.406 155.683 371.002 155.776C371.244 155.813 371.373 156.071 371.287 156.353C371.2 156.635 370.933 156.832 370.689 156.794C370.079 156.7 369.471 156.59 368.88 156.469L368.88 156.468ZM364.546 155.273C364.53 155.269 364.514 155.266 364.499 155.259C364.163 155.141 363.824 155.015 363.492 154.884C363.265 154.796 363.039 154.704 362.816 154.609C362.593 154.516 362.523 154.221 362.657 153.955C362.79 153.686 363.078 153.545 363.3 153.64C363.518 153.732 363.737 153.821 363.958 153.908C364.284 154.036 364.613 154.16 364.943 154.275C365.171 154.355 365.255 154.641 365.133 154.912C365.019 155.165 364.765 155.318 364.546 155.273ZM347.452 151.63C347.313 151.601 347.204 151.495 347.169 151.335C347.115 151.076 347.274 150.772 347.527 150.656C348.135 150.376 348.751 150.074 349.361 149.756C349.611 149.626 349.869 149.724 349.938 149.977C350.007 150.23 349.861 150.539 349.611 150.669C348.987 150.995 348.353 151.306 347.729 151.593C347.633 151.637 347.538 151.648 347.454 151.63L347.452 151.63ZM375.252 157.24C375.038 157.196 374.916 156.974 374.973 156.715C375.037 156.432 375.292 156.212 375.543 156.223C376.146 156.25 376.767 156.267 377.391 156.274C377.644 156.277 377.803 156.507 377.748 156.792C377.694 157.075 377.444 157.303 377.192 157.301C376.557 157.296 375.925 157.279 375.313 157.249C375.292 157.248 375.272 157.246 375.252 157.242L375.252 157.24ZM238.142 128.734C238.078 128.721 238.02 128.691 237.971 128.645C237.797 128.479 237.81 128.158 238.002 127.927C238.478 127.356 238.963 126.787 239.445 126.233C239.641 126.008 239.937 125.965 240.105 126.139C240.274 126.311 240.252 126.633 240.055 126.858C239.579 127.404 239.1 127.965 238.632 128.529C238.494 128.694 238.302 128.768 238.142 128.734ZM358.956 152.586C358.915 152.577 358.876 152.562 358.84 152.54C358.337 152.225 357.836 151.889 357.352 151.542C357.158 151.402 357.138 151.089 357.309 150.843C357.479 150.597 357.775 150.508 357.969 150.648C358.442 150.986 358.93 151.315 359.422 151.621C359.625 151.748 359.659 152.056 359.498 152.31C359.366 152.517 359.144 152.625 358.956 152.586ZM381.827 157.141C381.632 157.101 381.507 156.909 381.539 156.668C381.577 156.385 381.813 156.142 382.07 156.123C382.682 156.08 383.316 156.027 383.956 155.965C384.212 155.941 384.397 156.148 384.366 156.431C384.334 156.713 384.102 156.963 383.845 156.987C383.198 157.05 382.555 157.105 381.935 157.147C381.897 157.15 381.86 157.148 381.827 157.141ZM315.609 142.101C315.517 142.082 315.436 142.029 315.382 141.944C315.059 141.438 314.735 140.907 314.418 140.366C314.292 140.152 314.373 139.828 314.599 139.642C314.825 139.456 315.11 139.479 315.236 139.693C315.549 140.225 315.868 140.746 316.186 141.246C316.319 141.454 316.247 141.778 316.025 141.971C315.894 142.084 315.74 142.126 315.609 142.099L315.609 142.101ZM388.492 156.378C388.31 156.341 388.185 156.17 388.2 155.944C388.218 155.663 388.44 155.403 388.699 155.365C389.315 155.271 389.954 155.167 390.601 155.055C390.86 155.012 391.06 155.203 391.047 155.482C391.034 155.761 390.814 156.024 390.556 156.07C389.904 156.182 389.258 156.286 388.637 156.381C388.586 156.389 388.538 156.388 388.493 156.379L388.492 156.378ZM354.09 148.747C354.025 148.734 353.966 148.703 353.916 148.655C353.488 148.236 353.066 147.798 352.663 147.352C352.5 147.172 352.531 146.849 352.733 146.63C352.935 146.41 353.229 146.377 353.391 146.557C353.546 146.728 353.705 146.898 353.864 147.066C354.429 146.683 354.996 146.284 355.55 145.876C355.783 145.704 356.063 145.748 356.175 145.973C356.286 146.198 356.187 146.521 355.953 146.693C355.478 147.044 354.992 147.389 354.506 147.721C354.542 147.758 354.579 147.792 354.615 147.829C354.787 147.998 354.769 148.319 354.577 148.547C354.44 148.71 354.25 148.78 354.09 148.747ZM395.187 155.152C395.012 155.116 394.891 154.959 394.893 154.745C394.897 154.466 395.109 154.197 395.369 154.143C396.006 154.01 396.643 153.873 397.278 153.734C397.537 153.675 397.745 153.856 397.745 154.134C397.744 154.412 397.533 154.682 397.274 154.74C396.636 154.881 395.995 155.019 395.354 155.153C395.296 155.166 395.238 155.165 395.186 155.154L395.187 155.152ZM243.317 123.015C243.239 122.999 243.169 122.959 243.115 122.892C242.961 122.703 243.007 122.378 243.215 122.167C243.736 121.639 244.264 121.119 244.789 120.617C245.002 120.412 245.293 120.406 245.439 120.602C245.586 120.799 245.531 121.123 245.317 121.328C244.801 121.822 244.281 122.336 243.769 122.854C243.633 122.992 243.462 123.047 243.317 123.017L243.317 123.015ZM312.467 136.459C312.362 136.437 312.272 136.371 312.22 136.265C311.956 135.735 311.689 135.185 311.401 134.586C311.292 134.359 311.394 134.037 311.63 133.867C311.864 133.698 312.143 133.744 312.251 133.973C312.537 134.57 312.803 135.115 313.064 135.642C313.176 135.867 313.079 136.188 312.845 136.362C312.721 136.454 312.585 136.485 312.466 136.46L312.467 136.459ZM350.079 143.902C349.991 143.883 349.912 143.833 349.857 143.751C349.516 143.241 349.185 142.714 348.873 142.182C348.747 141.968 348.828 141.643 349.054 141.457C349.28 141.271 349.565 141.294 349.691 141.508C349.997 142.028 350.32 142.543 350.652 143.04C350.789 143.245 350.722 143.569 350.504 143.766C350.371 143.884 350.215 143.928 350.08 143.9L350.079 143.902ZM401.889 153.635C401.72 153.6 401.598 153.45 401.596 153.242C401.592 152.965 401.799 152.69 402.058 152.629C402.695 152.475 403.331 152.322 403.969 152.165C404.228 152.102 404.442 152.274 404.447 152.55C404.453 152.826 404.247 153.102 403.989 153.166C403.35 153.325 402.71 153.479 402.072 153.632C402.008 153.647 401.947 153.647 401.891 153.636L401.889 153.635ZM359.765 143.37C359.677 143.352 359.599 143.303 359.544 143.221C359.406 143.017 359.472 142.692 359.691 142.495C360.22 142.02 360.751 141.523 361.269 141.02C361.482 140.815 361.774 140.805 361.921 141C362.067 141.195 362.015 141.52 361.803 141.725C361.273 142.24 360.729 142.747 360.188 143.234C360.055 143.352 359.899 143.398 359.764 143.37L359.765 143.37ZM408.587 151.953C408.42 151.919 408.3 151.774 408.294 151.571C408.285 151.296 408.486 151.017 408.745 150.949C409.382 150.782 410.018 150.612 410.655 150.441C410.913 150.372 411.132 150.538 411.142 150.813C411.153 151.088 410.952 151.367 410.693 151.437C410.055 151.609 409.417 151.779 408.777 151.946C408.709 151.964 408.645 151.965 408.586 151.953L408.587 151.953ZM309.679 130.549C309.571 130.526 309.478 130.456 309.427 130.345C309.167 129.778 308.906 129.213 308.644 128.648C308.537 128.418 308.642 128.096 308.878 127.931C309.115 127.763 309.392 127.815 309.498 128.043C309.76 128.608 310.021 129.175 310.281 129.742C310.387 129.971 310.282 130.293 310.046 130.459C309.925 130.544 309.794 130.572 309.679 130.549ZM248.94 117.853C248.844 117.833 248.762 117.776 248.706 117.685C248.58 117.471 248.66 117.146 248.886 116.96C249.446 116.497 250.02 116.038 250.588 115.598C250.819 115.42 251.101 115.453 251.218 115.674C251.336 115.894 251.246 116.218 251.015 116.396C250.457 116.828 249.895 117.278 249.345 117.732C249.216 117.839 249.068 117.877 248.94 117.851L248.94 117.853ZM347.044 138.184C346.93 138.16 346.835 138.085 346.785 137.964C346.543 137.376 346.316 136.771 346.108 136.168C346.024 135.925 346.154 135.609 346.398 135.464C346.642 135.32 346.909 135.399 346.993 135.642C347.196 136.231 347.418 136.821 347.653 137.393C347.75 137.628 347.634 137.947 347.394 138.105C347.278 138.182 347.153 138.207 347.044 138.184ZM415.279 150.116C415.115 150.082 414.998 149.942 414.986 149.745C414.97 149.471 415.169 149.189 415.427 149.116C416.063 148.934 416.699 148.75 417.335 148.564C417.594 148.487 417.816 148.649 417.832 148.921C417.847 149.194 417.651 149.478 417.394 149.553C416.757 149.74 416.119 149.924 415.481 150.107C415.41 150.127 415.341 150.131 415.279 150.118L415.279 150.116ZM365.131 137.874C365.064 137.86 365.003 137.83 364.953 137.778C364.782 137.607 364.802 137.286 364.997 137.059C365.47 136.509 365.94 135.944 366.395 135.376C366.581 135.142 366.878 135.082 367.056 135.244C367.235 135.404 367.229 135.724 367.041 135.957C366.576 136.538 366.094 137.117 365.612 137.678C365.474 137.837 365.287 137.907 365.128 137.874L365.131 137.874ZM306.876 124.65C306.772 124.628 306.683 124.563 306.63 124.458C306.344 123.89 306.058 123.339 305.781 122.819C305.663 122.598 305.755 122.276 305.984 122.098C306.215 121.92 306.496 121.955 306.614 122.174C306.893 122.698 307.183 123.255 307.472 123.829C307.585 124.053 307.488 124.376 307.255 124.55C307.132 124.641 306.993 124.674 306.874 124.649L306.876 124.65ZM421.963 148.124C421.804 148.091 421.686 147.956 421.67 147.764C421.649 147.492 421.843 147.207 422.1 147.127C422.735 146.93 423.37 146.731 424.005 146.531C424.263 146.449 424.489 146.602 424.511 146.874C424.533 147.146 424.342 147.431 424.085 147.513C423.449 147.715 422.812 147.914 422.174 148.112C422.099 148.134 422.026 148.139 421.962 148.126L421.963 148.124ZM254.985 113.415C254.869 113.391 254.772 113.313 254.723 113.191C254.628 112.953 254.748 112.635 254.989 112.481C255.59 112.094 256.2 111.717 256.804 111.36C257.048 111.216 257.315 111.296 257.399 111.539C257.482 111.783 257.351 112.098 257.107 112.243C256.516 112.591 255.918 112.962 255.329 113.34C255.214 113.414 255.091 113.437 254.983 113.415L254.985 113.415ZM345.127 131.738C344.985 131.708 344.874 131.599 344.843 131.433C344.717 130.78 344.607 130.115 344.518 129.454C344.482 129.186 344.659 128.893 344.916 128.796C345.172 128.699 345.409 128.839 345.446 129.104C345.534 129.747 345.64 130.396 345.762 131.03C345.812 131.291 345.647 131.593 345.394 131.703C345.301 131.743 345.209 131.753 345.128 131.736L345.127 131.738ZM428.636 145.98C428.479 145.947 428.363 145.818 428.344 145.629C428.319 145.358 428.505 145.07 428.763 144.984C429.397 144.773 430.031 144.559 430.664 144.344C430.923 144.257 431.152 144.405 431.18 144.675C431.208 144.944 431.022 145.234 430.763 145.321C430.128 145.538 429.492 145.751 428.857 145.963C428.78 145.988 428.704 145.992 428.636 145.978L428.636 145.98ZM303.703 119.034C303.612 119.015 303.532 118.962 303.477 118.878C303.145 118.364 302.804 117.861 302.466 117.385C302.323 117.186 302.383 116.86 302.6 116.66C302.816 116.459 303.106 116.458 303.248 116.659C303.592 117.144 303.938 117.656 304.278 118.18C304.413 118.386 304.34 118.713 304.12 118.905C303.988 119.021 303.834 119.063 303.702 119.035L303.703 119.034ZM261.384 109.883C261.245 109.854 261.135 109.749 261.1 109.59C261.044 109.331 261.203 109.028 261.457 108.911C262.086 108.621 262.725 108.341 263.355 108.082C263.61 107.978 263.852 108.106 263.896 108.369C263.94 108.633 263.77 108.932 263.515 109.036C262.899 109.289 262.275 109.561 261.659 109.846C261.563 109.891 261.467 109.902 261.383 109.885L261.384 109.883ZM369.82 131.695C369.775 131.685 369.732 131.667 369.693 131.641C369.496 131.506 369.47 131.196 369.637 130.945C370.042 130.34 370.442 129.718 370.826 129.098C370.984 128.843 371.277 128.736 371.483 128.86C371.687 128.983 371.725 129.291 371.567 129.545C371.174 130.179 370.766 130.815 370.351 131.433C370.217 131.633 370.001 131.732 369.819 131.694L369.82 131.695ZM435.294 143.681C435.14 143.649 435.025 143.524 435.003 143.341C434.972 143.072 435.154 142.78 435.411 142.689C436.043 142.462 436.674 142.236 437.306 142.006C437.563 141.911 437.797 142.053 437.83 142.322C437.863 142.59 437.683 142.882 437.426 142.975C436.792 143.204 436.158 143.434 435.525 143.66C435.443 143.688 435.363 143.695 435.292 143.681L435.294 143.681ZM344.477 124.74C344.304 124.704 344.182 124.55 344.183 124.338C344.184 123.644 344.204 122.941 344.242 122.243C344.257 121.962 344.479 121.701 344.737 121.659C344.997 121.617 345.192 121.811 345.177 122.092C345.141 122.77 345.121 123.456 345.121 124.129C345.121 124.407 344.91 124.68 344.652 124.736C344.589 124.75 344.532 124.751 344.478 124.74L344.477 124.74ZM299.789 114.091C299.724 114.077 299.665 114.047 299.615 113.999C299.202 113.595 298.765 113.198 298.317 112.819C298.134 112.664 298.133 112.346 298.316 112.11C298.499 111.873 298.796 111.805 298.978 111.96C299.439 112.35 299.888 112.757 300.312 113.173C300.485 113.341 300.467 113.662 300.274 113.892C300.137 114.055 299.947 114.125 299.787 114.092L299.789 114.091ZM268.013 107.417C267.849 107.384 267.73 107.243 267.72 107.044C267.706 106.771 267.904 106.489 268.162 106.416C268.804 106.235 269.455 106.068 270.097 105.92C270.356 105.859 270.567 106.037 270.568 106.313C270.568 106.59 270.36 106.864 270.102 106.923C269.475 107.067 268.839 107.231 268.212 107.408C268.141 107.428 268.074 107.43 268.011 107.417L268.013 107.417ZM441.934 141.232C441.785 141.201 441.67 141.081 441.646 140.903C441.609 140.637 441.786 140.342 442.041 140.245C442.672 140.005 443.303 139.762 443.932 139.519C444.188 139.421 444.427 139.555 444.465 139.821C444.503 140.087 444.328 140.383 444.072 140.482C443.441 140.726 442.809 140.969 442.176 141.21C442.09 141.243 442.007 141.249 441.933 141.234L441.934 141.232ZM294.873 110.328C294.834 110.32 294.797 110.305 294.762 110.285C294.265 109.989 293.752 109.702 293.233 109.434C293.02 109.323 292.967 109.023 293.115 108.761C293.263 108.499 293.554 108.377 293.767 108.488C294.297 108.763 294.824 109.056 295.332 109.36C295.538 109.482 295.576 109.79 295.419 110.045C295.288 110.257 295.062 110.368 294.873 110.328ZM274.701 106.13C274.51 106.091 274.387 105.908 274.411 105.673C274.44 105.39 274.673 105.141 274.928 105.114C275.565 105.049 276.21 104.999 276.846 104.968C277.1 104.956 277.274 105.175 277.234 105.459C277.191 105.742 276.952 105.982 276.695 105.995C276.074 106.027 275.443 106.075 274.822 106.138C274.779 106.141 274.738 106.14 274.7 106.132L274.701 106.13ZM289.239 107.719C289.223 107.716 289.208 107.713 289.193 107.706C288.639 107.515 288.07 107.338 287.502 107.176C287.269 107.11 287.168 106.833 287.278 106.558C287.389 106.283 287.668 106.115 287.902 106.178C288.483 106.342 289.066 106.524 289.633 106.719C289.862 106.797 289.948 107.082 289.827 107.355C289.714 107.61 289.459 107.765 289.239 107.719ZM281.263 106.058C281.043 106.012 280.922 105.779 280.989 105.515C281.06 105.232 281.32 105.02 281.567 105.041C282.186 105.092 282.806 105.161 283.415 105.244C283.659 105.28 283.792 105.533 283.71 105.814C283.628 106.095 283.361 106.296 283.117 106.263C282.523 106.182 281.914 106.115 281.311 106.064C281.294 106.062 281.279 106.061 281.265 106.058L281.263 106.058ZM373.741 124.991C373.716 124.986 373.694 124.98 373.671 124.969C373.451 124.873 373.382 124.579 373.516 124.313C373.845 123.664 374.167 123.003 374.473 122.344C374.599 122.074 374.883 121.924 375.109 122.007C375.335 122.091 375.416 122.379 375.29 122.649C374.979 123.321 374.649 123.999 374.313 124.66C374.192 124.899 373.947 125.036 373.74 124.993L373.741 124.991ZM345.14 117.449C344.935 117.407 344.811 117.2 344.856 116.95C344.981 116.244 345.125 115.528 345.283 114.824C345.347 114.542 345.601 114.322 345.852 114.334C346.103 114.348 346.254 114.585 346.19 114.868C346.034 115.555 345.894 116.251 345.773 116.938C345.723 117.221 345.476 117.454 345.222 117.457C345.192 117.458 345.164 117.454 345.138 117.449L345.14 117.449ZM448.553 138.632C448.407 138.602 448.293 138.486 448.266 138.315C448.222 138.051 448.395 137.753 448.65 137.65C449.278 137.396 449.905 137.14 450.533 136.882C450.788 136.777 451.031 136.905 451.075 137.169C451.118 137.433 450.948 137.731 450.693 137.836C450.063 138.095 449.434 138.353 448.804 138.607C448.716 138.643 448.63 138.65 448.553 138.634L448.553 138.632ZM455.148 135.881C455.004 135.852 454.894 135.74 454.862 135.573C454.812 135.312 454.98 135.011 455.234 134.901C455.86 134.632 456.485 134.362 457.111 134.089C457.364 133.979 457.611 134.101 457.66 134.362C457.709 134.623 457.545 134.925 457.291 135.035C456.664 135.308 456.036 135.58 455.409 135.849C455.318 135.888 455.227 135.898 455.146 135.881L455.148 135.881ZM376.803 117.918C376.803 117.918 376.797 117.917 376.795 117.917C376.557 117.862 376.445 117.593 376.546 117.314C376.642 117.051 376.736 116.785 376.827 116.52C376.971 116.106 377.111 115.685 377.245 115.269C377.336 114.988 377.605 114.795 377.847 114.838C378.095 114.876 378.213 115.141 378.123 115.422C377.987 115.847 377.843 116.276 377.696 116.7C377.602 116.972 377.507 117.243 377.409 117.513C377.309 117.788 377.038 117.969 376.802 117.92L376.803 117.918ZM347.049 110.14C346.809 110.091 346.693 109.825 346.789 109.545C347.03 108.851 347.289 108.15 347.562 107.463C347.671 107.186 347.953 107.017 348.185 107.079C348.418 107.144 348.52 107.419 348.412 107.697C348.147 108.366 347.894 109.048 347.66 109.725C347.563 110.005 347.291 110.191 347.05 110.141L347.049 110.14ZM461.715 132.98C461.576 132.951 461.465 132.845 461.431 132.683C461.376 132.424 461.539 132.12 461.791 132.005C462.414 131.722 463.037 131.438 463.66 131.15C463.912 131.035 464.163 131.15 464.218 131.407C464.274 131.666 464.114 131.968 463.862 132.086C463.238 132.374 462.614 132.659 461.988 132.943C461.894 132.987 461.799 132.996 461.717 132.979L461.715 132.98ZM468.25 129.932C468.114 129.904 468.005 129.802 467.97 129.644C467.909 129.388 468.065 129.081 468.318 128.962C468.937 128.664 469.557 128.367 470.175 128.065C470.427 127.944 470.68 128.051 470.742 128.307C470.804 128.564 470.65 128.869 470.398 128.992C469.777 129.293 469.156 129.594 468.534 129.891C468.436 129.938 468.339 129.95 468.252 129.932L468.25 129.932ZM378.927 110.631C378.714 110.586 378.591 110.364 378.648 110.105C378.8 109.414 378.941 108.716 379.066 108.031C379.118 107.747 379.365 107.517 379.619 107.513C379.871 107.511 380.036 107.739 379.986 108.024C379.858 108.726 379.715 109.438 379.558 110.146C379.496 110.429 379.241 110.651 378.991 110.638C378.969 110.638 378.948 110.635 378.928 110.631L378.927 110.631ZM350.118 103.072C350.091 103.067 350.066 103.058 350.04 103.047C349.822 102.946 349.759 102.649 349.899 102.384C350.247 101.723 350.614 101.063 350.989 100.418C351.141 100.159 351.433 100.041 351.643 100.157C351.853 100.272 351.9 100.575 351.75 100.834C351.384 101.461 351.027 102.105 350.688 102.748C350.565 102.983 350.324 103.113 350.12 103.071L350.118 103.072ZM380.03 103.299C379.845 103.261 379.721 103.085 379.738 102.856C379.791 102.17 379.83 101.479 379.855 100.804C379.864 100.524 380.082 100.259 380.341 100.211C380.599 100.164 380.801 100.352 380.791 100.631C380.768 101.322 380.728 102.029 380.672 102.732C380.651 103.013 380.424 103.269 380.165 103.304C380.118 103.31 380.072 103.308 380.03 103.299ZM354.248 96.4971C354.194 96.486 354.143 96.4628 354.099 96.4284C353.912 96.2794 353.905 95.962 354.083 95.7209C354.529 95.12 354.992 94.5226 355.461 93.9465C355.65 93.7148 355.946 93.6588 356.124 93.8204C356.301 93.9833 356.291 94.3027 356.103 94.5364C355.647 95.0972 355.195 95.6789 354.762 96.2625C354.626 96.4455 354.42 96.5328 354.248 96.4971ZM380.006 96.1261C379.851 96.094 379.735 95.967 379.715 95.7824C379.643 95.1193 379.549 94.4695 379.432 93.8549C379.383 93.5938 379.548 93.2921 379.802 93.1822C380.056 93.0724 380.302 93.1939 380.351 93.4551C380.473 94.096 380.571 94.7701 380.646 95.4591C380.676 95.7288 380.49 96.0189 380.234 96.1084C380.154 96.137 380.077 96.1408 380.007 96.1264L380.006 96.1261ZM359.339 90.7026C359.254 90.6849 359.178 90.6385 359.123 90.5619C358.98 90.3627 359.04 90.0375 359.256 89.8366C359.803 89.3272 360.367 88.8374 360.93 88.3818C361.156 88.1977 361.44 88.2241 361.565 88.4395C361.689 88.6548 361.605 88.9786 361.378 89.1627C360.837 89.5994 360.295 90.0703 359.771 90.5591C359.638 90.6832 359.475 90.7308 359.338 90.7023L359.339 90.7026ZM378.233 89.6266C378.13 89.6053 378.042 89.5419 377.987 89.4385C377.707 88.8947 377.394 88.391 377.056 87.9417C376.909 87.747 376.961 87.4219 377.175 87.2154C377.388 87.0102 377.68 87.0004 377.827 87.1971C378.191 87.6806 378.528 88.2218 378.829 88.8059C378.944 89.0285 378.848 89.3516 378.616 89.5274C378.492 89.6209 378.354 89.6535 378.234 89.6286L378.233 89.6266ZM365.418 86.3859C365.284 86.3579 365.177 86.2582 365.139 86.104C365.077 85.8491 365.228 85.5411 365.48 85.4183C366.135 85.0955 366.788 84.8209 367.423 84.6005C367.68 84.5112 367.912 84.6569 367.941 84.9266C367.971 85.1962 367.786 85.4866 367.529 85.5759C366.935 85.7813 366.322 86.0406 365.708 86.343C365.609 86.3928 365.508 86.4045 365.42 86.3862L365.418 86.3859ZM373.781 85.4099C373.762 85.406 373.744 85.4024 373.727 85.3951C373.687 85.3797 373.648 85.3662 373.608 85.3524C373.113 85.1775 372.592 85.055 372.059 84.9896C371.813 84.9566 371.679 84.7068 371.758 84.4235C371.839 84.1423 372.102 83.9386 372.349 83.9682C372.935 84.0411 373.51 84.1747 374.053 84.3668C374.097 84.3832 374.14 84.3975 374.184 84.4139C374.41 84.4985 374.492 84.7864 374.366 85.0563C374.249 85.3067 373.998 85.4533 373.783 85.4085L373.781 85.4099Z" fill="#001E60"/>
<path d="M90.0408 39.1203L1.26172 157.701L240.021 96.6801L107.034 34.7384C104.137 33.3865 100.879 33.0838 97.7932 33.8796C94.7072 34.6754 91.9745 36.5227 90.0408 39.1203Z" fill="#004ED5"/>
<path d="M0 158.545L89.6465 38.8227C91.6456 36.1306 94.4768 34.2185 97.6739 33.4011C100.871 32.5838 104.243 32.9099 107.236 34.3257L241.538 96.8715L0 158.545ZM101.193 33.8942C99.1073 33.8957 97.0505 34.3933 95.1833 35.3481C93.3161 36.303 91.6892 37.6891 90.4299 39.398L2.50883 156.867L238.526 96.5455L106.835 35.1791C105.062 34.3572 103.138 33.9354 101.193 33.9422V33.8942Z" fill="#E1E9F5"/>
<path d="M1.25195 157.705L240.851 96.4705L273.132 229.974C273.771 232.617 273.363 235.413 271.997 237.746C270.631 240.08 268.419 241.76 265.848 242.417L45.6358 298.696C43.0649 299.353 40.3454 298.934 38.0756 297.529C35.8057 296.125 34.1715 293.851 33.5324 291.208L1.25195 157.705Z" fill="#E1E9F5"/>
<path d="M226.105 103.785L143.099 190.973L17.6388 161.939L3.28529 93.5251C2.49093 89.9961 3.07725 86.2876 4.91785 83.1989C6.75844 80.1103 9.70589 77.8889 13.1248 77.0137L194.619 30.6341C196.33 30.1953 198.108 30.1077 199.852 30.3763C201.596 30.645 203.272 31.2647 204.783 32.1998C206.293 33.135 207.61 34.3673 208.657 35.8262C209.704 37.2851 210.461 38.942 210.884 40.702L226.105 103.785Z" fill="white"/>
<path d="M131.697 184.117L33.125 290.012C33.4731 291.452 34.0937 292.808 34.9515 294.001C35.8093 295.195 36.8874 296.203 38.1242 296.967C39.361 297.732 40.7323 298.239 42.1597 298.459C43.5871 298.679 45.0427 298.607 46.4433 298.249L264.964 242.396C267.79 241.673 270.223 239.825 271.725 237.26C273.227 234.694 273.677 231.62 272.975 228.713L272.77 227.869L143.877 181.125C141.783 180.364 139.519 180.241 137.358 180.772C135.197 181.303 133.231 182.464 131.697 184.117Z" fill="#C7D2E5"/>
<path d="M77.5958 92.8971L29.2051 105.273L31.0086 112.727L79.3993 100.35L77.5958 92.8971Z" fill="#7B8BB3"/>
<path opacity="0.8" d="M191.311 83.8783L33.7754 124.169L35.813 132.59L193.349 92.2992L191.311 83.8783Z" fill="#7B8BB3"/>
<path d="M196.293 104.452L38.7578 144.743L40.7955 153.164L198.331 112.873L196.293 104.452Z" fill="#7B8BB3"/>
<path opacity="0.8" d="M199.607 131.716L194.673 136.789L62.4232 172.334L45.1411 168.182L44.4883 166.255L201.519 126.097L202.2 128.887L199.607 131.716Z" fill="#7B8BB3"/>
<path opacity="0.7" d="M165.781 167.145L106.203 182.372L87.9883 178.095L177.029 155.322L165.781 167.145Z" fill="#7B8BB3"/>
<path d="M128.098 187.971C128.098 187.971 128.033 188.077 127.874 188.259L127.166 189.055L124.424 192.075L114.267 203.131C105.668 212.441 93.7487 225.309 80.5517 239.414C67.3546 253.519 55.2302 266.176 46.3886 275.247C41.9678 279.782 38.3678 283.445 35.8683 285.947L32.9864 288.824L32.2216 289.562C32.1419 289.654 32.051 289.734 31.9512 289.802C32.0201 289.702 32.0981 289.609 32.1843 289.524L32.9118 288.747L35.7098 285.804L46.1275 274.997C54.9037 265.859 66.9629 253.174 80.1879 239.059C93.4129 224.945 105.37 212.211 113.997 202.881L124.256 191.941L127.054 188.988L127.8 188.23C128.005 188.048 128.098 187.971 128.098 187.971Z" fill="#FAFAFA"/>
<path d="M272.77 227.85C272.724 227.984 245.239 218.175 211.383 205.94C177.528 193.705 150.117 183.675 150.164 183.541C150.211 183.407 177.696 193.206 211.551 205.441C245.407 217.676 272.817 227.706 272.77 227.85Z" fill="#FAFAFA"/>
<path d="M230.047 99.5845C229.995 99.6699 229.936 99.7502 229.87 99.8242L229.347 100.486L227.137 103.008L218.902 112.203C211.925 119.941 202.207 130.546 191.314 142.119C180.42 153.693 170.366 164.02 163.073 171.441L154.39 180.186L152.003 182.535L151.378 183.139C151.228 183.274 151.154 183.341 151.145 183.331C151.204 183.249 151.269 183.172 151.34 183.101L151.928 182.459L154.25 180.042L162.812 171.182C170.049 163.694 180.001 153.319 190.894 141.755C201.788 130.191 211.543 119.663 218.594 111.992L226.941 102.912L229.226 100.457L229.832 99.8242C229.894 99.7355 229.966 99.655 230.047 99.5845Z" fill="#FAFAFA"/>
<path d="M128.102 187.972C127.992 187.965 127.882 187.946 127.776 187.914L126.843 187.684L123.113 186.725C119.923 185.9 115.288 184.74 109.552 183.359C98.0896 180.569 82.1879 176.973 64.6167 173.061C47.0456 169.149 31.1532 165.496 19.7096 162.61C13.9831 161.172 9.35713 159.963 6.17679 159.081L2.51147 158.055L1.57882 157.777C1.46868 157.753 1.36207 157.715 1.26172 157.662L1.58815 157.729L2.5208 157.95L6.2514 158.909C9.4504 159.733 14.0857 160.884 19.8215 162.274C31.2838 165.064 47.1762 168.66 64.7566 172.572C82.3371 176.484 98.2202 180.138 109.664 183.024C115.39 184.462 120.016 185.661 123.197 186.552L126.853 187.578L127.785 187.856L128.102 187.972Z" fill="#FAFAFA"/>
<path d="M226.104 103.785C226.104 103.785 226.01 103.469 225.852 102.826L225.171 100.113C224.574 97.7059 223.707 94.1869 222.588 89.6516L213.196 51.1825C212.698 49.1497 212.192 47.069 211.676 44.9404C211.424 43.8856 211.163 42.8021 210.892 41.7186C210.762 41.1721 210.631 40.6255 210.463 40.0982C210.317 39.5598 210.13 39.034 209.904 38.5257C208.979 36.3745 207.525 34.5083 205.685 33.111C203.845 31.7137 201.683 30.8337 199.411 30.5576C198.232 30.3899 197.037 30.3899 195.858 30.5576C194.683 30.7686 193.489 31.1042 192.286 31.4014L184.964 33.3191L169.66 37.2024L101.66 54.6535L33.5764 72.0279L18.2903 75.9208L14.5597 76.8797C13.3488 77.1383 12.1628 77.5073 11.0156 77.9824C8.803 78.9684 6.89402 80.5564 5.49431 82.5752C4.81694 83.5564 4.26525 84.6231 3.85284 85.749C3.46826 86.8613 3.21464 88.017 3.09739 89.1913C2.82692 91.5405 3.46112 93.8034 3.90879 96.0375C4.84145 100.512 5.73369 104.798 6.58551 108.896C9.98969 125.282 12.741 138.534 14.6436 147.71C15.5763 152.293 16.3131 155.841 16.8167 158.257C17.0499 159.456 17.2364 160.376 17.367 161.009C17.4975 161.642 17.5348 161.968 17.5348 161.968C17.5348 161.968 17.4509 161.652 17.311 161.009C17.1711 160.367 16.9752 159.465 16.7141 158.276C16.1918 155.851 15.4364 152.303 14.4571 147.729C12.5078 138.563 9.70056 125.311 6.23109 108.953C5.37305 104.859 4.45906 100.573 3.51708 96.095C3.06941 93.8897 2.41656 91.5501 2.69635 89.1242C2.80358 87.9099 3.06056 86.7145 3.46113 85.5669C3.88721 84.405 4.4544 83.3032 5.14922 82.2876C5.85584 81.2539 6.7004 80.3275 7.65806 79.5357C8.617 78.7137 9.68865 78.0417 10.8384 77.5413C12.0054 77.0516 13.2136 76.6729 14.4478 76.4098L18.1784 75.451L33.4925 71.5581L101.576 54.1453L169.66 36.771L184.946 32.878L192.267 31.0179C193.47 30.711 194.645 30.385 195.876 30.1645C197.674 29.8884 199.508 29.9837 201.269 30.4446C203.031 30.9056 204.685 31.7231 206.136 32.8493C207.981 34.2857 209.439 36.1836 210.37 38.3627C210.604 38.8863 210.797 39.4281 210.948 39.9831C211.116 40.5297 211.247 41.0762 211.377 41.6227C211.638 42.7062 211.89 43.7897 212.151 44.8541C212.664 46.9827 213.159 49.0634 213.653 51.0962L222.886 89.6324C223.959 94.1773 224.798 97.7059 225.367 100.113C225.647 101.311 225.861 102.222 226.001 102.845C226.141 103.469 226.104 103.785 226.104 103.785Z" fill="#7B8BB3"/>
</svg>
