<svg width="18" height="21" viewBox="0 0 18 21" fill="none" xmlns="http://www.w3.org/2000/svg">
<path d="M12.5117 2.74808C12.5117 2.42699 12.2599 2.16669 11.9492 2.16669C11.6386 2.16669 11.3867 2.42699 11.3867 2.74808H12.5117ZM11.3867 5.07366C11.3867 5.39476 11.6386 5.65506 11.9492 5.65506C12.2599 5.65506 12.5117 5.39476 12.5117 5.07366H11.3867ZM6.51172 2.74808C6.51172 2.42699 6.25988 2.16669 5.94922 2.16669C5.63856 2.16669 5.38672 2.42699 5.38672 2.74808H6.51172ZM5.38672 5.07366C5.38672 5.39476 5.63856 5.65506 5.94922 5.65506C6.25988 5.65506 6.51172 5.39476 6.51172 5.07366H5.38672ZM5.19922 4.49227H12.6992V3.32948H5.19922V4.49227ZM12.6992 17.6706H5.19922V18.8334H12.6992V17.6706ZM2.76172 15.1512V8.17444H1.63672V15.1512H2.76172ZM2.76172 8.17444V7.01165H1.63672V8.17444H2.76172ZM15.1367 7.01165V8.17444H16.2617V7.01165H15.1367ZM15.1367 8.17444V15.1512H16.2617V8.17444H15.1367ZM5.19922 17.6706C3.85302 17.6706 2.76172 16.5426 2.76172 15.1512H1.63672C1.63672 17.1848 3.23171 18.8334 5.19922 18.8334V17.6706ZM12.6992 18.8334C14.6668 18.8334 16.2617 17.1848 16.2617 15.1512H15.1367C15.1367 16.5426 14.0454 17.6706 12.6992 17.6706V18.8334ZM12.6992 4.49227C14.0454 4.49227 15.1367 5.62023 15.1367 7.01165H16.2617C16.2617 4.97804 14.6668 3.32948 12.6992 3.32948V4.49227ZM5.19922 3.32948C3.23171 3.32948 1.63672 4.97804 1.63672 7.01165H2.76172C2.76172 5.62023 3.85302 4.49227 5.19922 4.49227V3.32948ZM2.19922 8.75583V16L3.5 17.6706H8.94922H14.5L15.6992 16V8.75583V7.59304H2.19922V8.75583ZM11.3867 2.74808V5.07366H12.5117V2.74808H11.3867ZM5.38672 2.74808V5.07366H6.51172V2.74808H5.38672Z" fill="#004ED5"/>
</svg>
