<svg width="18" height="18" viewBox="0 0 18 18" fill="none" xmlns="http://www.w3.org/2000/svg">
<path d="M7.8244 1.24133C8.18565 0.129519 9.75857 0.129517 10.1198 1.24133L11.4105 5.21378C11.5721 5.711 12.0355 6.04764 12.5583 6.04764H16.7351C17.9042 6.04764 18.3902 7.54357 17.4445 8.23071L14.0653 10.6858C13.6423 10.9931 13.4654 11.5378 13.6269 12.035L14.9176 16.0075C15.2789 17.1193 14.0064 18.0438 13.0606 17.3567L9.68143 14.9016C9.25848 14.5943 8.68575 14.5943 8.26279 14.9016L4.88362 17.3567C3.93786 18.0438 2.66534 17.1193 3.02659 16.0075L4.31732 12.035C4.47887 11.5378 4.30189 10.9931 3.87893 10.6858L0.499763 8.23071C-0.446001 7.54357 0.0400561 6.04764 1.20908 6.04764H5.38597C5.90877 6.04764 6.37212 5.711 6.53367 5.21378L7.8244 1.24133Z" fill="#FFBF16"/>
</svg>
