<svg width="20" height="21" viewBox="0 0 20 21" fill="none" xmlns="http://www.w3.org/2000/svg">
<path d="M10 10.5C9.07174 10.5 8.1815 10.1049 7.52513 9.40165C6.86875 8.69839 6.5 7.74456 6.5 6.75C6.5 5.75544 6.86875 4.80161 7.52513 4.09835C8.1815 3.39509 9.07174 3 10 3C10.9283 3 11.8185 3.39509 12.4749 4.09835C13.1313 4.80161 13.5 5.75544 13.5 6.75C13.5 7.74456 13.1313 8.69839 12.4749 9.40165C11.8185 10.1049 10.9283 10.5 10 10.5ZM10 13.3125C12.7878 13.3125 15.2894 13.8478 17 16.1841V18H3V16.1841C4.71063 13.8469 7.21225 13.3125 10 13.3125Z" fill="#004ED5"/>
</svg>
