<svg width="20" height="20" viewBox="0 0 20 20" fill="none" xmlns="http://www.w3.org/2000/svg">
<path d="M17.6544 10C17.6544 10.359 17.9454 10.65 18.3044 10.65C18.6634 10.65 18.9544 10.359 18.9544 10H17.6544ZM9.9022 19.15C10.2612 19.15 10.5522 18.859 10.5522 18.5C10.5522 18.141 10.2612 17.85 9.9022 17.85V19.15ZM11.2622 1.15225C11.0467 0.865165 10.6393 0.807159 10.3522 1.02269C10.0651 1.23822 10.0071 1.64567 10.2226 1.93275L11.2622 1.15225ZM12.6131 10C12.6131 10.359 12.9041 10.65 13.2631 10.65C13.6221 10.65 13.9131 10.359 13.9131 10H12.6131ZM8.54217 18.8477C8.7577 19.1348 9.16515 19.1928 9.45223 18.9773C9.73932 18.7618 9.79732 18.3543 9.58179 18.0672L8.54217 18.8477ZM9.58179 1.93275C9.79732 1.64567 9.73932 1.23822 9.45223 1.02269C9.16515 0.807159 8.7577 0.865165 8.54217 1.15225L9.58179 1.93275ZM2.02934 12.325C1.67035 12.325 1.37934 12.616 1.37934 12.975C1.37934 13.334 1.67035 13.625 2.02934 13.625V12.325ZM9.9022 13.625C10.2612 13.625 10.5522 13.334 10.5522 12.975C10.5522 12.616 10.2612 12.325 9.9022 12.325V13.625ZM2.02934 6.375C1.67035 6.375 1.37934 6.66601 1.37934 7.025C1.37934 7.38398 1.67035 7.675 2.02934 7.675V6.375ZM17.7751 7.675C18.1341 7.675 18.4251 7.38398 18.4251 7.025C18.4251 6.66601 18.1341 6.375 17.7751 6.375V7.675ZM18.2027 15.0295L18.5463 14.4776L18.5461 14.4776L18.2027 15.0295ZM18.1649 15.9653L18.239 16.6111L18.2395 16.611L18.1649 15.9653ZM16.0081 16.2127L15.934 15.5669L15.5815 15.6073L15.4249 15.9256L16.0081 16.2127ZM15.041 18.1779L14.4578 17.8908L14.4575 17.8914L15.041 18.1779ZM14.1588 17.8939L13.5217 18.0232L13.5218 18.0236L14.1588 17.8939ZM13.1043 12.6953L13.7413 12.5661L13.7412 12.5655L13.1043 12.6953ZM13.7344 12.2491L13.3905 12.8007L13.391 12.801L13.7344 12.2491ZM18.9544 10C18.9544 4.95358 14.9088 0.85 9.9022 0.85V2.15C14.1767 2.15 17.6544 5.65732 17.6544 10H18.9544ZM9.9022 0.85C4.89561 0.85 0.85 4.95358 0.85 10H2.15C2.15 5.65732 5.62772 2.15 9.9022 2.15V0.85ZM0.85 10C0.85 15.0464 4.89561 19.15 9.9022 19.15V17.85C5.62772 17.85 2.15 14.3427 2.15 10H0.85ZM10.7424 1.5425C10.2226 1.93275 10.2225 1.93258 10.2224 1.93242C10.2223 1.93238 10.2222 1.93224 10.2222 1.93216C10.2221 1.93202 10.222 1.93192 10.222 1.93188C10.2219 1.93179 10.222 1.9319 10.2222 1.93221C10.2227 1.93284 10.2237 1.93427 10.2254 1.93649C10.2286 1.94094 10.2342 1.94858 10.2419 1.95936C10.2573 1.98091 10.2812 2.015 10.3125 2.06123C10.3752 2.1537 10.4671 2.29463 10.5787 2.48084C10.8019 2.8535 11.103 3.40619 11.4049 4.11385C12.0093 5.53026 12.6131 7.55724 12.6131 10H13.9131C13.9131 7.34276 13.2566 5.14099 12.6006 3.60365C12.2724 2.83444 11.9432 2.229 11.6939 1.81275C11.5691 1.60451 11.4641 1.44329 11.3889 1.33223C11.3513 1.27669 11.3211 1.23367 11.2996 1.20355C11.2888 1.18848 11.2802 1.17665 11.2739 1.16808C11.2708 1.1638 11.2683 1.16033 11.2663 1.15769C11.2653 1.15637 11.2645 1.15526 11.2638 1.15435C11.2635 1.1539 11.2632 1.1535 11.2629 1.15314C11.2628 1.15297 11.2626 1.15275 11.2625 1.15266C11.2624 1.15245 11.2622 1.15225 10.7424 1.5425ZM9.06198 18.4575C9.58179 18.0672 9.58192 18.0674 9.58204 18.0676C9.58207 18.0676 9.58218 18.0678 9.58224 18.0678C9.58234 18.068 9.58242 18.0681 9.58245 18.0681C9.58252 18.0682 9.58243 18.0681 9.5822 18.0678C9.58174 18.0672 9.58068 18.0657 9.57905 18.0635C9.57578 18.0591 9.57023 18.0514 9.56253 18.0406C9.54713 18.0191 9.52317 17.985 9.49186 17.9388C9.42922 17.8463 9.33729 17.7054 9.22572 17.5192C9.00247 17.1465 8.70145 16.5938 8.3995 15.8862C7.79514 14.4697 7.19132 12.4428 7.19132 10H5.89132C5.89132 12.6572 6.54784 14.859 7.2038 16.3963C7.53202 17.1656 7.86116 17.771 8.11053 18.1873C8.23528 18.3955 8.34027 18.5567 8.41549 18.6678C8.4531 18.7233 8.4833 18.7663 8.50482 18.7965C8.51558 18.8115 8.52418 18.8234 8.53046 18.8319C8.53359 18.8362 8.53615 18.8397 8.53811 18.8423C8.53909 18.8436 8.53992 18.8447 8.5406 18.8456C8.54094 18.8461 8.54124 18.8465 8.5415 18.8469C8.54163 18.847 8.5418 18.8473 8.54186 18.8473C8.54202 18.8476 8.54217 18.8477 9.06198 18.4575ZM7.19132 10C7.19132 7.55724 7.79514 5.53026 8.3995 4.11385C8.70145 3.40619 9.00247 2.8535 9.22572 2.48084C9.33729 2.29463 9.42922 2.1537 9.49186 2.06123C9.52317 2.015 9.54713 1.98091 9.56253 1.95936C9.57023 1.94858 9.57578 1.94094 9.57905 1.93649C9.58068 1.93427 9.58174 1.93284 9.5822 1.93221C9.58243 1.9319 9.58252 1.93179 9.58245 1.93188C9.58242 1.93192 9.58234 1.93202 9.58224 1.93216C9.58218 1.93224 9.58207 1.93238 9.58204 1.93242C9.58192 1.93258 9.58179 1.93275 9.06198 1.5425C8.54217 1.15225 8.54202 1.15245 8.54186 1.15266C8.5418 1.15275 8.54163 1.15297 8.5415 1.15314C8.54124 1.1535 8.54094 1.1539 8.5406 1.15435C8.53992 1.15526 8.53909 1.15637 8.53811 1.15769C8.53615 1.16033 8.53359 1.1638 8.53046 1.16808C8.52418 1.17665 8.51558 1.18848 8.50482 1.20355C8.4833 1.23367 8.4531 1.27669 8.41549 1.33223C8.34027 1.44329 8.23528 1.60452 8.11053 1.81275C7.86116 2.229 7.53202 2.83444 7.2038 3.60365C6.54784 5.14099 5.89132 7.34276 5.89132 10H7.19132ZM2.02934 13.625H9.9022V12.325H2.02934V13.625ZM2.02934 7.675H17.7751V6.375H2.02934V7.675ZM17.8592 15.5813C17.8593 15.5813 17.8582 15.5806 17.8568 15.579C17.8555 15.5776 17.8544 15.576 17.8536 15.5745C17.853 15.5733 17.8494 15.5665 17.8501 15.5493C17.8507 15.5335 17.8568 15.4846 17.902 15.4282C17.9546 15.3625 18.0293 15.3266 18.0903 15.3196L18.2395 16.611C18.8497 16.5405 19.1315 16.0312 19.149 15.6023C19.166 15.1857 18.963 14.7371 18.5463 14.4776L17.8592 15.5813ZM18.0909 15.3195L15.934 15.5669L16.0821 16.8584L18.239 16.6111L18.0909 15.3195ZM15.4249 15.9256L14.4578 17.8908L15.6242 18.4649L16.5913 16.4997L15.4249 15.9256ZM14.4575 17.8914C14.4824 17.8408 14.5391 17.7813 14.6215 17.7524C14.6932 17.7274 14.7455 17.7385 14.7643 17.7446C14.7967 17.755 14.7966 17.7688 14.7957 17.7643L13.5218 18.0236C13.6192 18.5019 13.9644 18.8527 14.3655 18.9819C14.5687 19.0474 14.8111 19.0634 15.0508 18.9795C15.3012 18.8919 15.5038 18.71 15.6244 18.4643L14.4575 17.8914ZM14.7958 17.7647L13.7413 12.5661L12.4673 12.8246L13.5217 18.0232L14.7958 17.7647ZM13.7412 12.5655C13.7437 12.578 13.7469 12.6868 13.6323 12.7679C13.5817 12.8037 13.5247 12.8195 13.4743 12.8193C13.4238 12.8191 13.3952 12.8036 13.3905 12.8007L14.0783 11.6975C13.7105 11.4682 13.2461 11.4485 12.8813 11.7068C12.5184 11.9636 12.3816 12.4047 12.4674 12.8252L13.7412 12.5655ZM13.391 12.801L17.8593 15.5813L18.5461 14.4776L14.0778 11.6972L13.391 12.801Z" fill="#004ED5"/>
</svg>
