<svg width="500" height="427" viewBox="0 0 500 427" fill="none" xmlns="http://www.w3.org/2000/svg">
<g clip-path="url(#clip0_3530_3787)">
<path d="M344.014 196.367L329.181 196.646L321.666 196.758C319.156 196.805 316.634 196.795 314.117 196.813L313.673 196.816L313.671 196.367L313.617 183.734L313.615 183.232L314.117 183.234L329.065 183.297C334.048 183.302 339.03 183.41 344.013 183.461L344.288 183.464L344.286 183.734C344.267 185.873 344.2 188.002 344.155 190.109L344.014 196.367ZM344.014 196.367L343.872 189.992C343.827 187.889 343.76 185.806 343.741 183.734L344.014 184.007C339.031 184.058 334.049 184.166 329.066 184.171L314.118 184.234L314.617 183.735L314.563 196.368L314.117 195.922C316.583 195.94 319.044 195.93 321.517 195.977L328.95 196.089L344.014 196.367Z" fill="#EBEBEB"/>
<path opacity="0.5" d="M423.226 137.971L429.113 128.48L426.206 126.68C425.351 126.15 424.888 125.184 424.974 124.182C425.021 123.628 425.039 123.071 425.027 122.512C425.005 121.509 425.529 120.576 426.413 120.102L429.426 118.486L424.146 108.641L421.134 110.257C420.25 110.731 419.183 110.651 418.36 110.078C417.901 109.759 417.427 109.465 416.94 109.198C416.058 108.715 415.509 107.794 415.541 106.79L415.649 103.372L404.486 103.025L404.383 106.455C404.353 107.461 403.736 108.336 402.826 108.766C402.579 108.883 402.334 109.006 402.092 109.136C401.849 109.266 401.611 109.402 401.378 109.543C400.521 110.061 399.456 110.091 398.605 109.564L395.677 107.75L389.79 117.241L392.702 119.048C393.556 119.579 394.019 120.546 393.932 121.548C393.884 122.099 393.866 122.655 393.877 123.211C393.898 124.212 393.374 125.145 392.491 125.618L389.477 127.234L394.757 137.079L397.771 135.463C398.654 134.989 399.72 135.069 400.543 135.64C401 135.957 401.473 136.249 401.959 136.514C402.842 136.996 403.392 137.917 403.361 138.922L403.256 142.348L414.419 142.695L414.526 139.268C414.557 138.266 415.172 137.394 416.078 136.965C416.326 136.848 416.573 136.723 416.818 136.592C417.06 136.462 417.299 136.326 417.533 136.185C418.395 135.665 419.464 135.635 420.32 136.166L423.226 137.971ZM413.775 130.923C409.323 133.311 403.783 131.638 401.395 127.186C399.007 122.734 400.675 117.186 405.128 114.798C409.58 112.41 415.132 114.086 417.52 118.538C419.907 122.991 418.227 128.536 413.775 130.923Z" fill="#FFBF16"/>
<path opacity="0.5" d="M101.53 245.51L107.417 236.019L104.51 234.218C103.655 233.688 103.192 232.722 103.278 231.72C103.326 231.166 103.343 230.609 103.331 230.05C103.309 229.047 103.833 228.114 104.717 227.64L107.73 226.024L102.45 216.179L99.4383 217.795C98.5543 218.269 97.4873 218.189 96.6643 217.616C96.2053 217.297 95.7313 217.003 95.2443 216.736C94.3623 216.253 93.8133 215.332 93.8453 214.328L93.9533 210.91L82.7903 210.563L82.6872 213.993C82.6572 214.999 82.0402 215.874 81.1302 216.304C80.8832 216.42 80.6383 216.544 80.3963 216.674C80.1533 216.804 79.9153 216.94 79.6823 217.081C78.8253 217.599 77.7602 217.629 76.9092 217.102L73.9813 215.288L68.0943 224.779L71.0062 226.586C71.8602 227.117 72.3233 228.084 72.2363 229.086C72.1883 229.638 72.1703 230.193 72.1813 230.749C72.2023 231.75 71.6782 232.683 70.7952 233.156L67.7812 234.772L73.0612 244.617L76.0752 243.001C76.9582 242.527 78.0243 242.607 78.8473 243.178C79.3043 243.495 79.7773 243.787 80.2633 244.052C81.1463 244.534 81.6963 245.455 81.6653 246.46L81.5602 249.886L92.7233 250.233L92.8303 246.806C92.8613 245.804 93.4763 244.932 94.3823 244.504C94.6303 244.387 94.8773 244.262 95.1223 244.131C95.3653 244.001 95.6033 243.865 95.8372 243.724C96.6992 243.204 97.7683 243.174 98.6243 243.705L101.53 245.51ZM92.0783 238.462C87.6263 240.85 82.0863 239.177 79.6982 234.725C77.3102 230.273 78.9783 224.725 83.4313 222.337C87.8833 219.949 93.4352 221.625 95.8232 226.077C98.2113 230.53 96.5303 236.074 92.0783 238.462Z" fill="#FFBF16"/>
<path opacity="0.5" d="M215.868 63.738L211.958 56.961L209.884 58.159C209.274 58.512 208.524 58.478 207.934 58.093C207.608 57.88 207.27 57.685 206.921 57.507C206.295 57.189 205.892 56.556 205.892 55.854V53.46H198.066V55.855C198.066 56.557 197.663 57.19 197.037 57.508C196.688 57.685 196.35 57.881 196.024 58.094C195.434 58.478 194.684 58.513 194.074 58.16L192 56.962L188.09 63.739L190.173 64.938C190.784 65.29 191.12 65.96 191.084 66.664C191.074 66.855 191.069 67.047 191.069 67.24C191.069 67.433 191.074 67.625 191.084 67.816C191.12 68.517 190.786 69.184 190.179 69.535L188.09 70.742L192 77.519L194.08 76.32C194.69 75.968 195.441 76.003 196.031 76.388C196.356 76.6 196.692 76.795 197.04 76.972C197.665 77.291 198.067 77.923 198.067 78.625V81.021H205.893V78.625C205.893 77.923 206.295 77.291 206.92 76.972C207.267 76.795 207.604 76.6 207.928 76.388C208.518 76.003 209.269 75.968 209.879 76.32L211.959 77.519L215.869 70.742L213.789 69.542C213.18 69.191 212.846 68.523 212.881 67.821C212.891 67.629 212.895 67.436 212.895 67.241C212.895 67.048 212.89 66.856 212.881 66.665C212.845 65.961 213.181 65.29 213.792 64.938L215.868 63.738ZM208.388 67.24C208.388 70.779 205.521 73.646 201.982 73.646C198.443 73.646 195.57 70.779 195.57 67.24C195.57 63.701 198.443 60.828 201.982 60.828C205.521 60.828 208.388 63.701 208.388 67.24Z" fill="#FFBF16"/>
<path d="M250 427.115C332.322 427.115 399.057 417.679 399.057 406.04C399.057 394.401 332.322 384.965 250 384.965C167.678 384.965 100.943 394.401 100.943 406.04C100.943 417.679 167.678 427.115 250 427.115Z" fill="#EBEBEB" fill-opacity="0.5"/>
<path d="M157.574 184.672L151.365 160.242L102.327 172.705L95.8457 147.205L135.034 57.893L154.471 52.953L173.369 127.312L189.061 123.324L195.587 149.002L179.895 152.99L186.104 177.42L157.574 184.672ZM123.976 139.866L148.228 133.703L140.206 102.14L123.976 139.866Z" fill="#001E60"/>
<path d="M298.023 103.118C298.023 111.214 296.795 118.665 294.343 125.473C291.888 132.281 288.515 138.168 284.222 143.136C279.927 148.104 274.868 151.968 269.044 154.727C263.216 157.487 256.868 158.867 250 158.867C243.129 158.867 236.753 157.487 230.865 154.727C224.977 151.967 219.886 148.103 215.594 143.136C211.299 138.168 207.958 132.281 205.567 125.473C203.175 118.665 201.979 111.214 201.979 103.118C201.979 95.023 203.175 87.571 205.567 80.764C207.959 73.956 211.299 68.069 215.594 63.101C219.886 58.133 224.977 54.241 230.865 51.418C236.753 48.598 243.129 47.186 250 47.186C256.868 47.186 263.215 48.598 269.044 51.418C274.868 54.241 279.927 58.133 284.222 63.101C288.515 68.069 291.888 73.956 294.343 80.764C296.795 87.571 298.023 95.023 298.023 103.118ZM268.4 103.118C268.4 94.534 266.681 87.571 263.248 82.235C259.812 76.9 255.398 74.232 250.001 74.232C244.358 74.232 239.85 76.9 236.478 82.235C233.103 87.571 231.418 94.534 231.418 103.118C231.418 111.705 233.103 118.637 236.478 123.909C239.85 129.184 244.358 131.821 250.001 131.821C255.398 131.821 259.812 129.185 263.248 123.909C266.682 118.637 268.4 111.705 268.4 103.118Z" fill="#004ED5"/>
<path d="M350.844 179.964L354.875 155.082L304.93 146.99L309.138 121.018L380.646 54.693L400.443 57.9L388.173 133.636L404.156 136.225L399.919 162.379L383.936 159.79L379.905 184.672L350.844 179.964ZM337.863 125.486L362.563 129.488L367.771 97.341L337.863 125.486Z" fill="#001E60"/>
<path d="M208.676 29.461C206.575 29.461 204.67 29.05 202.96 28.229C201.249 27.408 199.782 26.317 198.557 24.957C197.331 23.598 196.382 22.042 195.709 20.292C195.036 18.542 194.699 16.751 194.699 14.919C194.699 13.007 195.055 11.176 195.769 9.42501C196.482 7.67501 197.466 6.12601 198.718 4.77901C199.97 3.43201 201.458 2.36201 203.182 1.56701C204.905 0.773009 206.777 0.376007 208.797 0.376007C210.871 0.376007 212.762 0.800006 214.473 1.64801C216.183 2.49601 217.644 3.60701 218.856 4.98101C220.068 6.35501 221.01 7.91701 221.684 9.66701C222.357 11.418 222.694 13.195 222.694 15C222.694 16.913 222.343 18.736 221.644 20.474C220.943 22.211 219.974 23.746 218.735 25.079C217.496 26.412 216.015 27.476 214.292 28.27C212.567 29.064 210.696 29.461 208.676 29.461ZM200.354 14.918C200.354 16.157 200.542 17.356 200.919 18.513C201.296 19.671 201.841 20.695 202.555 21.583C203.268 22.472 204.144 23.185 205.181 23.724C206.217 24.263 207.396 24.532 208.716 24.532C210.062 24.532 211.254 24.256 212.291 23.704C213.328 23.153 214.203 22.418 214.917 21.502C215.63 20.587 216.169 19.557 216.533 18.412C216.897 17.267 217.078 16.103 217.078 14.917C217.078 13.679 216.882 12.48 216.492 11.322C216.101 10.164 215.549 9.14101 214.836 8.25201C214.122 7.36301 213.247 6.65701 212.211 6.13101C211.174 5.60601 210.009 5.34301 208.717 5.34301C207.37 5.34301 206.172 5.61901 205.121 6.17101C204.071 6.72301 203.196 7.45001 202.496 8.35201C201.795 9.25501 201.264 10.278 200.9 11.422C200.536 12.569 200.354 13.733 200.354 14.918Z" fill="#001E60"/>
<path d="M236.227 29.663C234.503 29.663 232.955 29.367 231.582 28.774C230.208 28.182 229.043 27.38 228.087 26.371C227.131 25.361 226.397 24.196 225.885 22.876C225.373 21.557 225.117 20.169 225.117 18.715C225.117 17.234 225.373 15.834 225.885 14.514C226.396 13.195 227.131 12.03 228.087 11.02C229.043 10.01 230.208 9.20902 231.582 8.61602C232.955 8.02402 234.503 7.72702 236.227 7.72702C237.95 7.72702 239.492 8.02402 240.853 8.61602C242.212 9.20902 243.371 10.01 244.327 11.02C245.283 12.03 246.017 13.195 246.529 14.514C247.04 15.834 247.296 17.234 247.296 18.715C247.296 20.169 247.04 21.557 246.529 22.876C246.017 24.196 245.29 25.36 244.348 26.371C243.405 27.381 242.247 28.183 240.874 28.774C239.499 29.366 237.95 29.663 236.227 29.663ZM230.692 18.715C230.692 19.658 230.834 20.513 231.116 21.28C231.399 22.048 231.789 22.714 232.287 23.28C232.785 23.845 233.371 24.283 234.044 24.593C234.717 24.903 235.444 25.058 236.226 25.058C237.007 25.058 237.734 24.903 238.407 24.593C239.08 24.284 239.666 23.846 240.164 23.28C240.662 22.714 241.053 22.041 241.335 21.26C241.618 20.479 241.759 19.618 241.759 18.675C241.759 17.76 241.617 16.912 241.335 16.13C241.052 15.349 240.662 14.676 240.164 14.11C239.665 13.544 239.079 13.107 238.407 12.797C237.734 12.487 237.007 12.332 236.226 12.332C235.444 12.332 234.717 12.494 234.044 12.817C233.371 13.14 232.785 13.585 232.287 14.15C231.788 14.716 231.398 15.389 231.116 16.17C230.833 16.952 230.692 17.8 230.692 18.715Z" fill="#001E60"/>
<path d="M263.614 29.663C261.944 29.663 260.49 29.293 259.252 28.552C258.013 27.812 257.043 26.809 256.343 25.543V37.864H250.93V8.09099H255.656V11.726C256.437 10.488 257.447 9.51099 258.686 8.79699C259.924 8.08399 261.352 7.72699 262.967 7.72699C264.395 7.72699 265.714 8.01699 266.926 8.59599C268.138 9.17499 269.182 9.95599 270.057 10.939C270.932 11.922 271.619 13.08 272.118 14.413C272.616 15.746 272.865 17.154 272.865 18.635C272.865 20.17 272.636 21.611 272.178 22.957C271.72 24.304 271.08 25.476 270.259 26.472C269.437 27.469 268.461 28.249 267.33 28.815C266.2 29.38 264.961 29.663 263.614 29.663ZM261.797 25.058C262.605 25.058 263.352 24.883 264.039 24.533C264.725 24.183 265.311 23.712 265.796 23.119C266.28 22.527 266.657 21.84 266.927 21.058C267.197 20.277 267.331 19.47 267.331 18.635C267.331 17.746 267.183 16.918 266.887 16.151C266.59 15.383 266.18 14.717 265.655 14.151C265.13 13.586 264.51 13.141 263.797 12.818C263.083 12.495 262.309 12.333 261.475 12.333C260.963 12.333 260.438 12.421 259.9 12.596C259.361 12.771 258.863 13.02 258.405 13.344C257.947 13.667 257.537 14.045 257.173 14.475C256.81 14.906 256.533 15.378 256.345 15.889V20.858C256.83 22.07 257.571 23.073 258.567 23.867C259.561 24.661 260.639 25.058 261.797 25.058Z" fill="#001E60"/>
<path d="M284.541 29.663C282.764 29.663 281.026 29.38 279.33 28.815C277.633 28.25 276.179 27.441 274.967 26.391L276.987 22.998C278.28 23.914 279.539 24.607 280.764 25.078C281.99 25.55 283.208 25.785 284.42 25.785C285.496 25.785 286.345 25.583 286.965 25.179C287.584 24.775 287.894 24.196 287.894 23.442C287.894 22.688 287.531 22.136 286.803 21.786C286.076 21.436 284.891 21.032 283.248 20.574C281.875 20.197 280.703 19.833 279.733 19.483C278.763 19.133 277.982 18.736 277.39 18.291C276.797 17.847 276.367 17.335 276.097 16.756C275.827 16.177 275.694 15.483 275.694 14.675C275.694 13.598 275.902 12.629 276.32 11.766C276.737 10.905 277.323 10.17 278.077 9.564C278.831 8.958 279.714 8.49401 280.723 8.17101C281.733 7.84801 282.829 7.686 284.015 7.686C285.604 7.686 287.091 7.915 288.479 8.373C289.866 8.831 291.138 9.571 292.296 10.595L290.114 13.867C289.037 13.059 287.994 12.467 286.983 12.09C285.973 11.713 284.97 11.525 283.974 11.525C283.058 11.525 282.29 11.714 281.671 12.09C281.051 12.467 280.741 13.073 280.741 13.908C280.741 14.285 280.815 14.595 280.964 14.837C281.111 15.079 281.348 15.295 281.671 15.483C281.994 15.672 282.418 15.854 282.943 16.028C283.468 16.204 284.121 16.385 284.902 16.573C286.356 16.95 287.601 17.327 288.638 17.704C289.675 18.081 290.523 18.512 291.183 18.996C291.843 19.481 292.328 20.04 292.638 20.672C292.947 21.305 293.102 22.066 293.102 22.955C293.102 25.029 292.335 26.665 290.799 27.863C289.268 29.064 287.18 29.663 284.541 29.663Z" fill="#001E60"/>
<path d="M297.668 18.473V0.294006H303.081V18.473H297.668ZM297.668 29.259V23.159H303.081V29.259H297.668Z" fill="#001E60"/>
<path d="M312.943 314.132C313.09 313.994 328.146 300.029 345.858 304.806C363.97 309.693 378.924 336.973 379.072 337.249L384.106 334.528C383.452 333.317 367.855 304.804 347.347 299.282C326.49 293.657 309.705 309.316 309 309.986L312.943 314.132Z" fill="#FFBF16"/>
<path opacity="0.4" d="M312.943 314.132C313.09 313.994 328.146 300.029 345.858 304.806C363.97 309.693 378.924 336.973 379.072 337.249L384.106 334.528C383.452 333.317 367.855 304.804 347.347 299.282C326.49 293.657 309.705 309.316 309 309.986L312.943 314.132Z" fill="white"/>
<path d="M372.397 364.712L383.243 358.986C382.202 357.015 380.92 353.627 380.734 350.568C380.493 346.604 382.066 345.21 383.801 344.293C387.601 342.286 389.869 343.082 391.418 343.994C393.591 345.277 395.801 347.902 397.64 351.386L408.486 345.66C405.518 340.038 401.873 335.924 397.652 333.432C393.441 330.95 386.627 328.933 378.075 333.447C371.409 336.966 368.006 343.311 368.493 351.312C368.875 357.608 371.578 363.16 372.397 364.712Z" fill="#FFBF16"/>
<path d="M270.6 270.845H235.088V273.754H270.6V270.845Z" fill="#001E60"/>
<path d="M270.6 274.634H235.088V277.543H270.6V274.634Z" fill="#001E60"/>
<path d="M270.6 278.424H235.088V281.333H270.6V278.424Z" fill="#001E60"/>
<path d="M270.6 282.213H235.088V285.122H270.6V282.213Z" fill="#001E60"/>
<path d="M270.6 286.002H235.088V288.911H270.6V286.002Z" fill="#001E60"/>
<path d="M285.973 361.594H218.457V364.503H285.973V361.594Z" fill="#001E60"/>
<path d="M285.973 365.383H218.457V368.292H285.973V365.383Z" fill="#001E60"/>
<path d="M285.973 369.172H218.457V372.081H285.973V369.172Z" fill="#001E60"/>
<path d="M285.973 372.961H218.457V375.87H285.973V372.961Z" fill="#001E60"/>
<path d="M285.973 376.751H218.457V379.66H285.973V376.751Z" fill="#001E60"/>
<path d="M188.834 246.798C188.867 246.405 174.057 241.444 174.057 241.444L174.932 190.558L194.571 186.344L188.834 246.798Z" fill="#FFBF16"/>
<path opacity="0.2" d="M188.834 246.798C188.867 246.405 174.057 241.444 174.057 241.444L174.932 190.558L194.571 186.344L188.834 246.798Z" fill="black"/>
<path d="M324.488 266.772C324.592 266.391 340.206 266.83 340.206 266.83L356.896 218.751L339.907 208.036L324.488 266.772Z" fill="#FFBF16"/>
<path opacity="0.2" d="M324.488 266.772C324.592 266.391 340.206 266.83 340.206 266.83L356.896 218.751L339.907 208.036L324.488 266.772Z" fill="black"/>
<path d="M185.982 265.536C185.982 265.536 191.473 183.238 196.289 156.165C196.289 156.165 295.706 163.684 349.375 184.197C349.375 184.197 321.706 280.325 320.274 285.095C320.274 285.095 250.266 271.304 185.982 265.536Z" fill="#FFBF16"/>
<path opacity="0.1" d="M274.721 167.155C273.105 177.064 271.469 186.97 269.776 196.866L264.652 226.545L264.376 226.126L297.687 234.039L314.325 238.071L330.944 242.183L314.237 238.444L297.549 234.626L264.208 226.838L263.871 226.759L263.932 226.418L269.237 196.771C271.02 186.891 272.861 177.021 274.721 167.155Z" fill="black"/>
<path opacity="0.1" d="M271.065 172.803C271.083 173.711 270.359 174.644 269.319 174.735C268.815 174.783 268.267 174.622 267.857 174.265C267.447 173.908 267.202 173.358 267.199 172.803C267.202 172.248 267.445 171.697 267.856 171.34C268.265 170.98 268.815 170.822 269.319 170.869C270.36 170.96 271.083 171.895 271.065 172.803ZM271.065 172.803C271.061 172.345 270.858 171.895 270.517 171.606C270.175 171.317 269.727 171.199 269.32 171.246C268.481 171.343 267.937 172.096 267.949 172.803C267.936 173.51 268.479 174.267 269.32 174.362C269.727 174.408 270.176 174.29 270.518 174.001C270.858 173.711 271.061 173.261 271.065 172.803Z" fill="black"/>
<path opacity="0.1" d="M269.319 185.048C269.337 185.956 268.613 186.89 267.573 186.98C267.069 187.028 266.521 186.867 266.111 186.51C265.701 186.153 265.456 185.603 265.453 185.048C265.456 184.493 265.699 183.942 266.11 183.585C266.519 183.225 267.069 183.067 267.573 183.114C268.615 183.206 269.338 184.141 269.319 185.048ZM269.319 185.048C269.315 184.59 269.112 184.14 268.771 183.851C268.429 183.562 267.981 183.444 267.574 183.491C266.735 183.588 266.191 184.341 266.203 185.048C266.19 185.755 266.733 186.512 267.574 186.607C267.981 186.653 268.43 186.535 268.772 186.245C269.113 185.957 269.315 185.506 269.319 185.048Z" fill="black"/>
<path opacity="0.1" d="M267.171 197.987C267.189 198.895 266.465 199.829 265.425 199.919C264.921 199.967 264.373 199.807 263.963 199.449C263.553 199.092 263.308 198.542 263.305 197.987C263.308 197.432 263.551 196.881 263.962 196.524C264.371 196.164 264.921 196.006 265.425 196.053C266.467 196.145 267.19 197.079 267.171 197.987ZM267.171 197.987C267.167 197.529 266.964 197.079 266.623 196.79C266.281 196.501 265.833 196.383 265.426 196.43C264.587 196.527 264.043 197.28 264.055 197.987C264.042 198.694 264.585 199.451 265.426 199.546C265.833 199.593 266.282 199.474 266.624 199.185C266.964 198.895 267.167 198.445 267.171 197.987Z" fill="black"/>
<path opacity="0.1" d="M265.02 210.926C265.039 211.834 264.314 212.767 263.274 212.858C262.77 212.905 262.222 212.745 261.812 212.388C261.402 212.031 261.157 211.481 261.154 210.926C261.156 210.371 261.401 209.82 261.811 209.463C262.22 209.103 262.77 208.945 263.274 208.992C264.316 209.083 265.039 210.018 265.02 210.926ZM265.02 210.926C265.016 210.468 264.813 210.018 264.471 209.729C264.129 209.44 263.681 209.322 263.274 209.369C262.435 209.466 261.891 210.219 261.903 210.926C261.89 211.633 262.433 212.39 263.274 212.485C263.681 212.531 264.13 212.413 264.472 212.124C264.813 211.834 265.016 211.384 265.02 210.926Z" fill="black"/>
<path opacity="0.1" d="M272.346 231.561C272.365 232.469 271.64 233.402 270.6 233.493C270.096 233.54 269.548 233.38 269.138 233.023C268.728 232.666 268.483 232.116 268.48 231.561C268.482 231.006 268.726 230.455 269.137 230.098C269.546 229.738 270.096 229.58 270.6 229.627C271.641 229.718 272.364 230.653 272.346 231.561ZM272.346 231.561C272.342 231.103 272.139 230.653 271.797 230.364C271.455 230.075 271.007 229.957 270.6 230.004C269.761 230.101 269.217 230.854 269.229 231.561C269.216 232.268 269.759 233.025 270.6 233.12C271.007 233.167 271.456 233.048 271.798 232.758C272.139 232.469 272.341 232.019 272.346 231.561Z" fill="black"/>
<path opacity="0.1" d="M284.559 234.54C284.578 235.448 283.853 236.382 282.813 236.472C282.309 236.519 281.761 236.359 281.351 236.002C280.941 235.645 280.696 235.095 280.693 234.54C280.696 233.985 280.94 233.434 281.35 233.077C281.759 232.717 282.309 232.559 282.813 232.606C283.855 232.698 284.578 233.632 284.559 234.54ZM284.559 234.54C284.555 234.082 284.352 233.632 284.011 233.343C283.669 233.054 283.221 232.936 282.814 232.983C281.975 233.08 281.431 233.833 281.443 234.54C281.43 235.247 281.973 236.004 282.814 236.099C283.221 236.145 283.67 236.027 284.012 235.737C284.352 235.448 284.555 234.998 284.559 234.54Z" fill="black"/>
<path opacity="0.1" d="M296.772 237.52C296.79 238.428 296.066 239.361 295.026 239.452C294.522 239.499 293.974 239.339 293.564 238.982C293.154 238.625 292.909 238.075 292.906 237.52C292.909 236.965 293.152 236.414 293.563 236.057C293.972 235.697 294.522 235.539 295.026 235.586C296.067 235.677 296.79 236.612 296.772 237.52ZM296.772 237.52C296.768 237.062 296.565 236.612 296.224 236.323C295.882 236.034 295.434 235.916 295.027 235.963C294.188 236.06 293.644 236.813 293.656 237.52C293.643 238.227 294.186 238.984 295.027 239.079C295.434 239.125 295.883 239.007 296.225 238.717C296.565 238.428 296.767 237.977 296.772 237.52Z" fill="black"/>
<path opacity="0.1" d="M308.985 240.499C309.004 241.407 308.279 242.34 307.239 242.431C306.735 242.478 306.187 242.319 305.777 241.961C305.367 241.604 305.122 241.054 305.119 240.499C305.122 239.944 305.365 239.393 305.776 239.036C306.185 238.676 306.735 238.518 307.239 238.565C308.281 238.656 309.003 239.591 308.985 240.499ZM308.985 240.499C308.981 240.041 308.778 239.591 308.437 239.302C308.095 239.013 307.647 238.895 307.24 238.942C306.401 239.039 305.857 239.792 305.869 240.499C305.856 241.206 306.399 241.963 307.24 242.058C307.647 242.104 308.096 241.986 308.438 241.697C308.778 241.407 308.981 240.957 308.985 240.499Z" fill="black"/>
<path opacity="0.1" d="M321.194 243.612C321.143 244.519 320.349 245.394 319.305 245.404C318.799 245.413 318.265 245.211 317.883 244.823C317.501 244.435 317.299 243.869 317.339 243.315C317.384 242.762 317.67 242.232 318.107 241.907C318.543 241.58 319.103 241.464 319.602 241.55C320.634 241.721 321.282 242.709 321.194 243.612ZM321.194 243.612C321.225 243.155 321.057 242.691 320.739 242.376C320.42 242.061 319.982 241.909 319.573 241.925C318.729 241.957 318.128 242.666 318.086 243.372C318.018 244.076 318.502 244.872 319.333 245.032C319.735 245.11 320.192 245.027 320.555 244.764C320.918 244.502 321.155 244.069 321.194 243.612Z" fill="black"/>
<path opacity="0.1" d="M262.87 223.865C262.888 224.773 262.164 225.707 261.124 225.797C260.62 225.845 260.072 225.685 259.662 225.327C259.252 224.97 259.007 224.42 259.004 223.865C259.007 223.31 259.251 222.759 259.661 222.402C260.07 222.042 260.62 221.883 261.124 221.931C262.166 222.022 262.889 222.957 262.87 223.865ZM262.87 223.865C262.866 223.407 262.663 222.957 262.321 222.668C261.979 222.379 261.531 222.261 261.124 222.308C260.285 222.405 259.741 223.158 259.753 223.865C259.74 224.572 260.283 225.329 261.124 225.424C261.531 225.47 261.98 225.352 262.321 225.062C262.664 224.773 262.866 224.323 262.87 223.865Z" fill="black"/>
<path opacity="0.2" d="M242.304 245.304C253.897 234.879 254.845 217.03 244.421 205.436C233.996 193.842 216.147 192.894 204.553 203.319C192.959 213.743 192.011 231.593 202.436 243.187C212.86 254.781 230.71 255.728 242.304 245.304Z" fill="black"/>
<path d="M244.593 232.327C249.02 220.633 243.128 207.565 231.434 203.138C219.74 198.712 206.672 204.603 202.245 216.297C197.819 227.991 203.71 241.06 215.404 245.486C227.098 249.913 240.167 244.021 244.593 232.327Z" fill="#001E60"/>
<path d="M222.062 215.988L216.77 215.131L215.912 220.423L221.205 221.281L222.062 215.988Z" fill="#FFBF16"/>
<path d="M217.627 209.838L212.334 208.981L211.477 214.274L216.769 215.131L217.627 209.838Z" fill="#FFBF16"/>
<path d="M238.799 213.267L233.506 212.41L232.648 217.703L237.941 218.56L238.799 213.267Z" fill="#FFBF16"/>
<path d="M214.217 230.889L208.924 230.032L208.066 235.325L213.359 236.182L214.217 230.889Z" fill="#FFBF16"/>
<path d="M235.389 234.319L230.096 233.461L229.238 238.754L234.531 239.612L235.389 234.319Z" fill="#FFBF16"/>
<path d="M220.367 226.455L215.074 225.597L214.217 230.89L219.51 231.747L220.367 226.455Z" fill="#FFBF16"/>
<path d="M226.508 222.079L221.215 221.221L220.357 226.514L225.65 227.371L226.508 222.079Z" fill="#FFBF16"/>
<path d="M232.648 217.703L227.355 216.845L226.498 222.138L231.791 222.995L232.648 217.703Z" fill="#FFBF16"/>
<path d="M230.959 228.166L225.666 227.309L224.809 232.601L230.101 233.459L230.959 228.166Z" fill="#FFBF16"/>
<path d="M321.029 254.021C330.911 241.961 329.145 224.173 317.085 214.291C305.025 204.409 287.238 206.175 277.356 218.235C267.474 230.295 269.24 248.083 281.3 257.965C293.36 267.847 311.147 266.081 321.029 254.021Z" fill="#FFBF16"/>
<path opacity="0.2" d="M321.029 254.021C330.911 241.961 329.145 224.173 317.085 214.291C305.025 204.409 287.238 206.175 277.356 218.235C267.474 230.295 269.24 248.083 281.3 257.965C293.36 267.847 311.147 266.081 321.029 254.021Z" fill="black"/>
<path opacity="0.2" d="M326.66 242.672C326.53 243.228 326.382 243.765 326.215 244.302L271.188 232.565C271.317 231.583 271.493 230.601 271.724 229.61C275.328 214.445 290.548 205.07 305.723 208.673C320.889 212.277 330.264 227.497 326.66 242.672Z" fill="black"/>
<path d="M307.915 257.035C319.453 252.215 324.899 238.954 320.078 227.416C315.258 215.879 301.997 210.433 290.459 215.254C278.922 220.074 273.476 233.335 278.296 244.873C283.117 256.41 296.378 261.856 307.915 257.035Z" fill="#001E60"/>
<path d="M304.891 223.77L299.674 222.531L293.503 248.496L298.72 249.736L304.891 223.77Z" fill="#FFBF16"/>
<path d="M328.299 242.141L270.498 228.404C274.291 212.446 290.307 202.586 306.265 206.378C322.224 210.172 332.092 226.183 328.299 242.141Z" fill="#FFBF16"/>
<path opacity="0.2" d="M328.299 242.141L270.498 228.404C274.291 212.446 290.307 202.586 306.265 206.378C322.224 210.172 332.092 226.183 328.299 242.141Z" fill="black"/>
<path opacity="0.3" d="M250.072 252.922C250.218 250.665 251.047 248.376 252.684 246.566C253.491 245.654 254.568 244.938 255.754 244.502C256.946 244.064 258.234 243.987 259.455 244.091C260.698 244.236 261.967 244.674 263.003 245.458C264.019 246.258 264.798 247.301 265.256 248.424C266.199 250.662 266.302 253.054 265.845 255.272C265.469 253.055 264.896 250.902 263.855 249.135C262.822 247.354 261.188 246.247 259.241 246.075C257.255 245.828 255.317 246.361 253.756 247.68C252.195 248.995 251.003 250.878 250.072 252.922Z" fill="#001E60"/>
<path d="M193.715 195.34C193.949 192.324 194.288 189.322 194.574 186.313C194.895 183.309 195.225 180.306 195.59 177.309C195.937 174.309 196.328 171.315 196.712 168.319C197.088 165.323 197.522 162.335 197.924 159.342L198.031 158.543L198.841 158.594C205.355 159.004 211.855 159.53 218.346 160.198C221.591 160.531 224.832 160.908 228.069 161.324C231.3 161.788 234.536 162.216 237.748 162.804L218.231 161.596L198.734 160.335L199.651 159.587C199.208 162.574 198.796 165.565 198.327 168.548C197.865 171.532 197.41 174.517 196.912 177.496C196.432 180.477 195.917 183.454 195.392 186.429C194.833 189.399 194.326 192.377 193.715 195.34Z" fill="white"/>
<path d="M198.41 218.156C199.065 214.53 200.713 211.075 202.927 208.066C203.478 207.309 204.105 206.61 204.708 205.89C205.361 205.216 206.04 204.564 206.71 203.903C207.441 203.309 208.179 202.72 208.929 202.149C209.726 201.644 210.513 201.117 211.323 200.632C212.176 200.222 213.024 199.8 213.885 199.41L216.567 198.482L219.343 197.909C220.275 197.773 221.222 197.744 222.157 197.674C225.921 197.577 229.626 198.38 233.026 199.757C229.407 199.079 225.801 198.703 222.246 199.042C218.7 199.372 215.254 200.432 212.173 202.168C209.068 203.863 206.318 206.201 203.995 208.917C201.682 211.647 199.767 214.739 198.41 218.156Z" fill="white"/>
<path d="M276.285 225.782C277.435 222.281 279.544 219.087 282.152 216.412C282.802 215.739 283.52 215.133 284.217 214.503C284.956 213.926 285.719 213.374 286.474 212.811C287.28 212.323 288.092 211.842 288.914 211.38C289.773 210.99 290.625 210.576 291.495 210.208C292.397 209.92 293.295 209.619 294.201 209.352L296.986 208.803L299.815 208.619C300.757 208.612 301.698 208.715 302.634 208.774C306.376 209.198 309.933 210.505 313.111 212.338C309.62 211.167 306.101 210.296 302.533 210.142C298.975 209.98 295.416 210.554 292.125 211.848C288.816 213.098 285.769 215.034 283.093 217.403C280.423 219.788 278.1 222.585 276.285 225.782Z" fill="white"/>
<path d="M189.14 316.252C181.908 316.252 166.076 314.626 155.888 301.527C142.854 284.769 147.565 252.613 147.771 251.252L153.43 252.111C153.383 252.42 148.886 283.201 160.406 298.013C171.669 312.494 192.098 310.415 192.303 310.39L192.947 316.077C192.724 316.104 191.323 316.252 189.14 316.252Z" fill="#FFBF16"/>
<path opacity="0.4" d="M189.14 316.252C181.908 316.252 166.076 314.626 155.888 301.527C142.854 284.769 147.565 252.613 147.771 251.252L153.43 252.111C153.383 252.42 148.886 283.201 160.406 298.013C171.669 312.494 192.098 310.415 192.303 310.39L192.947 316.077C192.724 316.104 191.323 316.252 189.14 316.252Z" fill="white"/>
<path d="M155.096 256.005C154.064 256.005 153.01 255.919 151.937 255.745C142.391 254.199 138.165 248.487 136.3 243.967C134.431 239.437 133.999 233.957 135.016 227.681L147.122 229.643C146.492 233.531 146.675 236.958 147.637 239.29C148.323 240.954 149.655 242.952 153.898 243.639C155.836 243.953 157.931 243.787 160.125 240.478C161.818 237.924 162.836 234.448 163.192 232.246L175.298 234.207C175.018 235.939 173.831 241.999 170.346 247.255C166.556 252.972 161.221 256.005 155.096 256.005Z" fill="#FFBF16"/>
<path d="M201.099 332.633C201.078 332.372 190.843 330.737 190.843 330.737L185.875 297.332L198.272 292.435L201.099 332.633Z" fill="#FFBF16"/>
<path opacity="0.2" d="M201.099 332.633C201.078 332.372 190.843 330.737 190.843 330.737L185.875 297.332L198.272 292.435L201.099 332.633Z" fill="black"/>
<path d="M302.295 332.695C302.322 332.435 312.591 331.026 312.591 331.026L318.296 297.739L306.01 292.569L302.295 332.695Z" fill="#FFBF16"/>
<path opacity="0.2" d="M302.295 332.695C302.322 332.435 312.591 331.026 312.591 331.026L318.296 297.739L306.01 292.569L302.295 332.695Z" fill="black"/>
<path d="M196.841 284.955C196.841 284.955 279.627 281.415 307.592 286.076C307.592 286.076 299.38 366.182 298.936 367.736C298.936 367.736 216.585 367.514 203.712 367.736C203.712 367.736 196.735 314.469 196.841 284.955Z" fill="#FFBF16"/>
<path opacity="0.2" d="M221.986 306.906C221.986 306.906 267.179 305.121 282.446 307.471C282.446 307.471 277.963 347.865 277.721 348.648C277.721 348.648 232.765 348.536 225.738 348.648C225.736 348.648 222.648 321.002 221.986 306.906Z" fill="black"/>
<path opacity="0.2" d="M228.162 348.631C227.127 348.631 226.307 348.644 225.733 348.651C225.733 348.651 222.649 321 221.982 306.904C221.982 306.904 223.01 306.864 224.805 306.804L228.162 348.631Z" fill="black"/>
<path d="M241.492 316.873C238.959 316.075 236.26 317.481 235.462 320.012C234.663 322.548 236.071 325.244 238.604 326.042C241.135 326.84 243.831 325.435 244.629 322.902C245.427 320.372 244.023 317.671 241.492 316.873ZM244.072 322.726C243.371 324.952 241.002 326.186 238.779 325.485C236.556 324.784 235.321 322.416 236.023 320.19C236.724 317.967 239.093 316.732 241.318 317.434C243.538 318.134 244.773 320.503 244.072 322.726ZM241.492 316.873C238.959 316.075 236.26 317.481 235.462 320.012C234.663 322.548 236.071 325.244 238.604 326.042C241.135 326.84 243.831 325.435 244.629 322.902C245.427 320.372 244.023 317.671 241.492 316.873ZM244.072 322.726C243.371 324.952 241.002 326.186 238.779 325.485C236.556 324.784 235.321 322.416 236.023 320.19C236.724 317.967 239.093 316.732 241.318 317.434C243.538 318.134 244.773 320.503 244.072 322.726ZM241.492 316.873C238.959 316.075 236.26 317.481 235.462 320.012C234.663 322.548 236.071 325.244 238.604 326.042C241.135 326.84 243.831 325.435 244.629 322.902C245.427 320.372 244.023 317.671 241.492 316.873ZM244.072 322.726C243.371 324.952 241.002 326.186 238.779 325.485C236.556 324.784 235.321 322.416 236.023 320.19C236.724 317.967 239.093 316.732 241.318 317.434C243.538 318.134 244.773 320.503 244.072 322.726ZM243.094 311.795C237.753 310.113 232.066 313.08 230.383 318.413C228.702 323.749 231.663 329.44 237.002 331.121C242.335 332.801 248.027 329.838 249.708 324.502C251.391 319.169 248.428 313.475 243.094 311.795ZM245.344 323.126C244.423 326.049 241.299 327.677 238.379 326.756C235.459 325.836 233.831 322.712 234.751 319.789C235.672 316.866 238.798 315.241 241.718 316.161C244.636 317.082 246.264 320.206 245.344 323.126ZM244.629 322.903C245.427 320.372 244.023 317.672 241.492 316.874C238.959 316.076 236.26 317.482 235.462 320.013C234.663 322.549 236.071 325.245 238.604 326.043C241.135 326.841 243.831 325.436 244.629 322.903ZM244.072 322.726C243.371 324.952 241.002 326.186 238.779 325.485C236.556 324.784 235.321 322.416 236.023 320.19C236.724 317.967 239.093 316.732 241.318 317.434C243.538 318.134 244.773 320.503 244.072 322.726ZM241.492 316.873C238.959 316.075 236.26 317.481 235.462 320.012C234.663 322.548 236.071 325.244 238.604 326.042C241.135 326.84 243.831 325.435 244.629 322.902C245.427 320.372 244.023 317.671 241.492 316.873ZM244.072 322.726C243.371 324.952 241.002 326.186 238.779 325.485C236.556 324.784 235.321 322.416 236.023 320.19C236.724 317.967 239.093 316.732 241.318 317.434C243.538 318.134 244.773 320.503 244.072 322.726ZM241.492 316.873C238.959 316.075 236.26 317.481 235.462 320.012C234.663 322.548 236.071 325.244 238.604 326.042C241.135 326.84 243.831 325.435 244.629 322.902C245.427 320.372 244.023 317.671 241.492 316.873ZM244.072 322.726C243.371 324.952 241.002 326.186 238.779 325.485C236.556 324.784 235.321 322.416 236.023 320.19C236.724 317.967 239.093 316.732 241.318 317.434C243.538 318.134 244.773 320.503 244.072 322.726Z" fill="white"/>
<path d="M238.985 331.305L235.27 330.134L234.646 332.829L237.951 333.87L238.985 331.305Z" fill="white"/>
<path d="M232.31 327.825L230.51 324.37L228.164 325.835L229.764 328.908L232.31 327.825Z" fill="white"/>
<path d="M230.048 320.642L231.218 316.927L228.524 316.304L227.482 319.608L230.048 320.642Z" fill="white"/>
<path d="M233.528 313.965L236.983 312.166L235.518 309.819L232.445 311.42L233.528 313.965Z" fill="white"/>
<path d="M240.711 311.704L244.427 312.875L245.05 310.18L241.746 309.139L240.711 311.704Z" fill="white"/>
<path d="M247.389 315.184L249.188 318.639L251.535 317.175L249.934 314.102L247.389 315.184Z" fill="white"/>
<path d="M249.65 322.367L248.479 326.082L251.174 326.706L252.215 323.401L249.65 322.367Z" fill="white"/>
<path d="M246.169 329.044L242.713 330.844L244.178 333.19L247.251 331.59L246.169 329.044Z" fill="white"/>
<path d="M257.833 331.012C256.335 330.036 254.33 330.461 253.355 331.957C252.378 333.457 252.804 335.46 254.302 336.436C255.799 337.411 257.801 336.987 258.777 335.489C259.752 333.993 259.33 331.987 257.833 331.012ZM258.448 335.274C257.591 336.591 255.831 336.963 254.516 336.106C253.201 335.25 252.829 333.49 253.686 332.174C254.542 330.859 256.302 330.487 257.618 331.344C258.932 332.2 259.304 333.959 258.448 335.274ZM257.833 331.012C256.335 330.036 254.33 330.461 253.355 331.957C252.378 333.457 252.804 335.46 254.302 336.436C255.799 337.411 257.801 336.987 258.777 335.489C259.752 333.993 259.33 331.987 257.833 331.012ZM258.448 335.274C257.591 336.591 255.831 336.963 254.516 336.106C253.201 335.25 252.829 333.49 253.686 332.174C254.542 330.859 256.302 330.487 257.618 331.344C258.932 332.2 259.304 333.959 258.448 335.274ZM257.833 331.012C256.335 330.036 254.33 330.461 253.355 331.957C252.378 333.457 252.804 335.46 254.302 336.436C255.799 337.411 257.801 336.987 258.777 335.489C259.752 333.993 259.33 331.987 257.833 331.012ZM258.448 335.274C257.591 336.591 255.831 336.963 254.516 336.106C253.201 335.25 252.829 333.49 253.686 332.174C254.542 330.859 256.302 330.487 257.618 331.344C258.932 332.2 259.304 333.959 258.448 335.274ZM259.79 328.009C256.63 325.953 252.406 326.848 250.35 330.003C248.295 333.16 249.186 337.386 252.344 339.441C255.499 341.495 259.726 340.602 261.781 337.446C263.837 334.291 262.945 330.063 259.79 328.009ZM259.2 335.764C258.074 337.493 255.754 337.984 254.027 336.859C252.3 335.734 251.808 333.414 252.934 331.685C254.06 329.956 256.381 329.467 258.108 330.592C259.834 331.716 260.325 334.036 259.2 335.764ZM258.777 335.489C259.752 333.992 259.33 331.988 257.833 331.013C256.335 330.037 254.33 330.462 253.355 331.958C252.378 333.458 252.804 335.461 254.302 336.437C255.799 337.412 257.801 336.987 258.777 335.489ZM258.448 335.274C257.591 336.591 255.831 336.963 254.516 336.106C253.201 335.25 252.829 333.49 253.686 332.174C254.542 330.859 256.302 330.487 257.618 331.344C258.932 332.2 259.304 333.959 258.448 335.274ZM257.833 331.012C256.335 330.036 254.33 330.461 253.355 331.957C252.378 333.457 252.804 335.46 254.302 336.436C255.799 337.411 257.801 336.987 258.777 335.489C259.752 333.993 259.33 331.987 257.833 331.012ZM258.448 335.274C257.591 336.591 255.831 336.963 254.516 336.106C253.201 335.25 252.829 333.49 253.686 332.174C254.542 330.859 256.302 330.487 257.618 331.344C258.932 332.2 259.304 333.959 258.448 335.274ZM257.833 331.012C256.335 330.036 254.33 330.461 253.355 331.957C252.378 333.457 252.804 335.46 254.302 336.436C255.799 337.411 257.801 336.987 258.777 335.489C259.752 333.993 259.33 331.987 257.833 331.012ZM258.448 335.274C257.591 336.591 255.831 336.963 254.516 336.106C253.201 335.25 252.829 333.49 253.686 332.174C254.542 330.859 256.302 330.487 257.618 331.344C258.932 332.2 259.304 333.959 258.448 335.274Z" fill="#004ED5"/>
<path d="M253.599 339.918L251.401 338.487L250.51 340.122L252.465 341.395L253.599 339.918Z" fill="#004ED5"/>
<path d="M249.897 336.454L249.355 333.888L247.568 334.414L248.051 336.696L249.897 336.454Z" fill="#004ED5"/>
<path d="M249.731 331.387L251.162 329.189L249.527 328.298L248.254 330.253L249.731 331.387Z" fill="#004ED5"/>
<path d="M253.195 327.686L255.761 327.144L255.235 325.358L252.953 325.84L253.195 327.686Z" fill="#004ED5"/>
<path d="M258.262 327.519L260.459 328.95L261.351 327.315L259.396 326.042L258.262 327.519Z" fill="#004ED5"/>
<path d="M261.963 330.983L262.505 333.549L264.291 333.023L263.809 330.741L261.963 330.983Z" fill="#004ED5"/>
<path d="M262.13 336.05L260.699 338.248L262.334 339.139L263.607 337.184L262.13 336.05Z" fill="#004ED5"/>
<path d="M258.666 339.751L256.1 340.293L256.625 342.079L258.908 341.597L258.666 339.751Z" fill="#004ED5"/>
<path d="M305.594 358.414L308.776 359.006L317.875 297.379L314.25 296.713L305.594 358.414Z" fill="#FFBF16"/>
<path d="M277.721 348.648L282.446 307.471L314.25 296.713C314.25 296.713 305.594 359.08 305.594 358.414L277.721 348.648Z" fill="#FFBF16"/>
<path opacity="0.4" d="M277.721 348.648L282.446 307.471L314.25 296.713C314.25 296.713 305.594 359.08 305.594 358.414L277.721 348.648Z" fill="white"/>
<path d="M200.639 309.139C200.121 305.728 199.841 302.289 199.628 298.847C199.53 297.125 199.486 295.401 199.448 293.677C199.414 291.953 199.384 290.227 199.435 288.502L199.449 288.049L199.89 288.025C206.208 287.686 212.522 287.271 218.844 286.995C225.164 286.683 231.484 286.4 237.809 286.202C231.504 286.773 225.196 287.259 218.886 287.717C212.578 288.21 206.263 288.564 199.952 288.994L200.406 288.517L200.38 293.667L200.44 298.819C200.449 300.538 200.48 302.256 200.53 303.975L200.639 309.139Z" fill="white"/>
<path d="M286.881 308.075C288.851 307.139 290.852 306.269 292.877 305.466C294.896 304.644 296.933 303.866 298.994 303.152C301.058 302.447 303.129 301.757 305.235 301.172C307.337 300.58 309.459 300.033 311.627 299.678L312.16 299.591L312.065 300.1C311.566 302.766 311.044 305.428 310.427 308.075C310.658 305.367 310.984 302.673 311.333 299.984L311.771 300.406C309.67 300.907 307.586 301.493 305.508 302.107C303.432 302.728 301.362 303.382 299.298 304.054L286.881 308.075Z" fill="white"/>
<path opacity="0.1" d="M214.402 285.122L214.938 295.421L215.396 305.723L216.19 326.331L216.811 346.945L217.059 357.254L217.229 367.566L216.692 357.267L216.234 346.965L215.441 326.357L214.822 305.743L214.573 295.434L214.402 285.122Z" fill="black"/>
<path opacity="0.1" d="M211.453 291.33C211.651 292.217 211.125 293.275 210.124 293.569C209.639 293.715 209.071 293.667 208.598 293.397C208.125 293.128 207.776 292.638 207.664 292.094C207.557 291.549 207.687 290.961 208.019 290.53C208.349 290.097 208.857 289.832 209.36 289.779C210.398 289.663 211.292 290.437 211.453 291.33ZM211.453 291.33C211.358 290.882 211.07 290.481 210.679 290.265C210.287 290.049 209.824 290.022 209.434 290.149C208.631 290.41 208.246 291.255 208.398 291.947C208.525 292.642 209.207 293.277 210.05 293.204C210.458 293.169 210.875 292.965 211.152 292.613C211.43 292.262 211.539 291.78 211.453 291.33Z" fill="black"/>
<path opacity="0.1" d="M212.162 303.679C212.36 304.566 211.834 305.624 210.833 305.918C210.348 306.064 209.78 306.016 209.307 305.746C208.834 305.477 208.485 304.987 208.373 304.443C208.266 303.898 208.396 303.31 208.728 302.879C209.058 302.446 209.566 302.181 210.069 302.128C211.107 302.012 212.001 302.786 212.162 303.679ZM212.162 303.679C212.067 303.231 211.779 302.83 211.388 302.614C210.996 302.398 210.533 302.371 210.143 302.498C209.34 302.759 208.955 303.605 209.107 304.296C209.234 304.991 209.916 305.626 210.759 305.553C211.167 305.518 211.584 305.313 211.862 304.962C212.139 304.611 212.249 304.129 212.162 303.679Z" fill="black"/>
<path opacity="0.1" d="M212.611 316.788C212.809 317.675 212.283 318.733 211.282 319.027C210.797 319.173 210.229 319.125 209.756 318.855C209.283 318.586 208.934 318.096 208.822 317.552C208.715 317.008 208.845 316.419 209.177 315.988C209.507 315.554 210.015 315.29 210.518 315.237C211.556 315.121 212.45 315.895 212.611 316.788ZM212.611 316.788C212.516 316.34 212.228 315.939 211.837 315.723C211.445 315.507 210.982 315.48 210.592 315.607C209.789 315.868 209.404 316.713 209.556 317.404C209.683 318.1 210.365 318.734 211.208 318.661C211.616 318.626 212.033 318.422 212.31 318.07C212.588 317.719 212.697 317.238 212.611 316.788Z" fill="black"/>
<path opacity="0.1" d="M213.062 329.896C213.26 330.783 212.734 331.841 211.733 332.135C211.248 332.281 210.68 332.233 210.207 331.963C209.734 331.694 209.385 331.204 209.273 330.66C209.166 330.115 209.296 329.527 209.628 329.096C209.958 328.663 210.465 328.398 210.969 328.345C212.007 328.229 212.901 329.003 213.062 329.896ZM213.062 329.896C212.967 329.448 212.68 329.047 212.288 328.831C211.896 328.615 211.433 328.588 211.043 328.715C210.24 328.976 209.855 329.821 210.007 330.513C210.134 331.208 210.816 331.843 211.659 331.77C212.067 331.735 212.484 331.531 212.761 331.179C213.039 330.828 213.148 330.346 213.062 329.896Z" fill="black"/>
<path opacity="0.1" d="M213.511 343.005C213.709 343.892 213.183 344.95 212.182 345.244C211.697 345.39 211.129 345.342 210.656 345.072C210.183 344.803 209.834 344.313 209.722 343.769C209.615 343.224 209.745 342.636 210.077 342.205C210.407 341.772 210.915 341.507 211.418 341.454C212.456 341.338 213.35 342.111 213.511 343.005ZM213.511 343.005C213.416 342.557 213.128 342.156 212.737 341.94C212.345 341.724 211.882 341.697 211.492 341.824C210.689 342.085 210.304 342.93 210.456 343.622C210.583 344.318 211.265 344.952 212.108 344.879C212.516 344.844 212.933 344.64 213.211 344.288C213.488 343.936 213.597 343.454 213.511 343.005Z" fill="black"/>
<path opacity="0.1" d="M213.962 356.113C214.16 357 213.634 358.058 212.633 358.352C212.148 358.498 211.58 358.45 211.107 358.18C210.634 357.911 210.285 357.421 210.173 356.877C210.066 356.333 210.196 355.744 210.528 355.313C210.858 354.879 211.365 354.615 211.869 354.562C212.907 354.446 213.8 355.22 213.962 356.113ZM213.962 356.113C213.867 355.665 213.579 355.264 213.188 355.048C212.796 354.832 212.333 354.805 211.943 354.932C211.14 355.193 210.755 356.038 210.907 356.73C211.034 357.426 211.716 358.06 212.559 357.987C212.967 357.952 213.384 357.747 213.661 357.396C213.939 357.044 214.048 356.563 213.962 356.113Z" fill="black"/>
<path d="M218.008 376.158L171.133 390.362L172.792 395.839L219.667 381.635L218.008 376.158Z" fill="#FFBF16"/>
<path opacity="0.4" d="M218.008 376.158L171.133 390.362L172.792 395.839L219.667 381.635L218.008 376.158Z" fill="white"/>
<path d="M195.581 381.094L190.127 382.829L192.704 390.931L198.158 389.196L195.581 381.094Z" fill="#FFBF16"/>
<path d="M172.426 403.863L160.33 351.484L123.82 360.14L141.798 411.187L172.426 403.863Z" fill="#FFBF16"/>
<path d="M180.527 401.2L172.426 403.863L160.33 351.484L171.982 354.258L180.527 401.2Z" fill="#FFBF16"/>
<path opacity="0.2" d="M180.527 401.2L172.426 403.863L160.33 351.484L171.982 354.258L180.527 401.2Z" fill="black"/>
<path d="M218.859 385.108C222.29 385.108 225.073 382.326 225.073 378.894C225.073 375.462 222.29 372.68 218.859 372.68C215.427 372.68 212.645 375.462 212.645 378.894C212.645 382.326 215.427 385.108 218.859 385.108Z" fill="#FFBF16"/>
<path d="M282.802 376.006L281.131 381.48L327.976 395.782L329.647 390.309L282.802 376.006Z" fill="#FFBF16"/>
<path opacity="0.4" d="M282.802 376.006L281.131 381.48L327.976 395.782L329.647 390.309L282.802 376.006Z" fill="white"/>
<path d="M305.262 380.967L302.668 389.063L308.118 390.809L310.712 382.714L305.262 380.967Z" fill="#FFBF16"/>
<path d="M328.357 403.818L340.565 351.464L377.056 360.198L358.97 411.207L328.357 403.818Z" fill="#FFBF16"/>
<path d="M320.262 401.137L328.357 403.818L340.565 351.464L328.907 354.214L320.262 401.137Z" fill="#FFBF16"/>
<path opacity="0.2" d="M320.262 401.137L328.357 403.818L340.565 351.464L328.907 354.214L320.262 401.137Z" fill="black"/>
<path d="M275.764 378.737C275.757 382.169 278.533 384.957 281.965 384.965C285.397 384.972 288.185 382.196 288.193 378.764C288.2 375.332 285.424 372.544 281.992 372.536C278.559 372.528 275.771 375.305 275.764 378.737Z" fill="#FFBF16"/>
<path d="M274.938 315.787C275.474 313.952 276.336 312.163 277.452 310.458C278.568 308.755 279.935 307.121 281.65 305.669C283.37 304.232 285.487 302.965 288.034 302.264C290.581 301.586 293.497 301.591 296.051 302.32C298.637 303.039 300.675 304.59 301.774 306.373C302.345 307.264 302.702 308.219 302.849 309.196C302.977 310.171 302.923 311.185 302.379 312.16C302.102 312.639 301.669 313.122 300.975 313.444C300.64 313.611 300.23 313.706 299.827 313.751C299.43 313.791 299.024 313.779 298.562 313.664C297.712 313.406 297.286 312.918 296.92 312.478C296.594 312.021 296.342 311.553 296.171 311.08C295.457 309.187 295.384 307.262 295.51 305.358C295.889 301.565 297.284 297.772 300.146 294.508C301.59 292.895 303.402 291.411 305.654 290.326C307.877 289.234 310.48 288.482 313.138 288.264C314.445 288.038 315.796 288.059 317.131 288.013C317.8 287.962 318.465 288.078 319.132 288.103C319.793 288.165 320.472 288.157 321.116 288.294C323.756 288.632 326.237 289.389 328.554 290.304C330.857 291.252 332.909 292.469 334.781 293.79C336.638 295.124 338.326 296.584 339.683 298.191C336.678 295.13 332.81 292.472 328.249 290.692C325.954 289.84 323.528 289.141 320.974 288.858C320.35 288.734 319.696 288.756 319.058 288.705C318.416 288.691 317.777 288.587 317.135 288.649C315.853 288.716 314.562 288.711 313.311 288.952C310.75 289.209 308.374 289.945 306.283 290.97C304.182 291.997 302.487 293.405 301.125 294.947C298.428 298.067 297.107 301.751 296.778 305.412C296.634 307.242 296.699 309.112 297.339 310.85C297.646 311.681 298.196 312.617 298.997 312.879C299.1 312.886 299.169 312.925 299.293 312.928C299.418 312.921 299.551 312.941 299.669 312.919C299.911 312.891 300.146 312.844 300.348 312.741C300.764 312.554 301.095 312.222 301.317 311.841C301.763 311.07 301.844 310.156 301.732 309.275C301.608 308.389 301.29 307.509 300.777 306.693C299.772 305.061 297.99 303.651 295.68 302.96C293.383 302.264 290.694 302.207 288.31 302.8C285.914 303.414 283.844 304.593 282.119 305.96C278.657 308.726 276.323 312.187 274.938 315.787Z" fill="#001E60"/>
<path d="M185.58 341.255C186.301 339.88 187.362 338.69 188.6 337.75C189.837 336.809 191.257 336.08 192.786 335.722C194.306 335.354 195.939 335.348 197.46 335.815C198.982 336.276 200.352 337.178 201.45 338.328C202.554 339.477 203.38 340.873 203.947 342.357C204.504 343.844 204.838 345.437 204.72 347.066C204.64 347.867 204.48 348.733 203.852 349.426C203.542 349.767 203.062 349.992 202.593 350C202.143 349.995 201.718 349.928 201.305 349.705C200.895 349.491 200.566 349.119 200.379 348.708C200.188 348.296 200.117 347.86 200.098 347.438C200.068 346.591 200.249 345.787 200.494 345.022C200.996 343.489 201.82 342.109 202.782 340.858C203.75 339.608 204.889 338.495 206.166 337.568C208.698 335.709 211.924 334.675 215.07 335.092C216.623 335.304 218.164 335.758 219.524 336.559C220.895 337.334 222.084 338.41 223.054 339.639C224.022 340.874 224.777 342.261 225.359 343.706C225.94 345.153 226.369 346.662 226.58 348.203C225.952 345.174 224.721 342.231 222.759 339.883C221.787 338.71 220.616 337.703 219.287 336.993C217.969 336.257 216.491 335.863 215.003 335.694C212.013 335.365 208.98 336.329 206.569 338.135C204.16 339.927 202.189 342.429 201.192 345.258C200.958 345.964 200.794 346.702 200.816 347.412C200.832 348.118 201.077 348.795 201.637 349.081C201.901 349.234 202.259 349.294 202.571 349.299C202.874 349.291 203.143 349.169 203.359 348.943C203.796 348.483 203.983 347.73 204.049 347.007C204.166 345.53 203.864 344.002 203.342 342.59C202.813 341.175 202.027 339.855 201.01 338.751C199.996 337.648 198.718 336.787 197.304 336.319C195.892 335.844 194.344 335.805 192.873 336.12C189.931 336.753 187.204 338.614 185.58 341.255Z" fill="#001E60"/>
<path d="M132.952 97.208C132.839 93.093 131.966 88.95 130.051 85.34C129.092 83.552 127.82 81.9 126.15 80.793C124.483 79.711 122.413 79.266 120.474 79.58C118.527 79.886 116.794 81.061 115.596 82.618C114.989 83.396 114.514 84.277 114.186 85.203C113.868 86.125 113.69 87.119 113.828 88.028C113.897 88.477 114.062 88.894 114.332 89.173C114.46 89.322 114.627 89.415 114.804 89.491C114.889 89.536 114.996 89.54 115.089 89.571C115.185 89.591 115.247 89.562 115.328 89.574C116.009 89.444 116.677 88.545 117.129 87.713C118.076 85.973 118.618 83.982 118.989 81.997C119.7 78.016 119.66 73.823 118.419 69.977C117.785 68.07 116.859 66.243 115.523 64.75C114.194 63.26 112.572 62.026 110.682 61.269C109.789 60.777 108.801 60.54 107.839 60.226C107.364 60.04 106.848 60.032 106.354 59.925C105.853 59.86 105.359 59.714 104.849 59.729C102.822 59.552 100.784 59.845 98.8048 60.326C94.8498 61.375 91.1938 63.493 88.0918 66.206C89.5518 64.741 91.2258 63.495 92.9958 62.415C94.7748 61.353 96.6628 60.436 98.6728 59.853C100.684 59.308 102.781 58.964 104.887 59.098C105.416 59.072 105.931 59.209 106.454 59.266C106.97 59.364 107.509 59.365 108.007 59.545C109.015 59.846 110.054 60.077 110.993 60.564C112.967 61.296 114.759 62.59 116.171 64.177C117.607 65.761 118.601 67.691 119.281 69.689C120.61 73.72 120.678 78.044 119.969 82.175C119.565 84.237 119.002 86.285 117.959 88.178C117.703 88.652 117.387 89.106 117.018 89.534C116.623 89.936 116.169 90.379 115.452 90.496C115.068 90.531 114.755 90.468 114.462 90.35C114.166 90.226 113.877 90.048 113.665 89.806C113.22 89.331 113.015 88.732 112.93 88.168C112.77 87.024 112.995 85.928 113.35 84.907C113.719 83.888 114.244 82.933 114.914 82.087C116.223 80.385 118.19 79.107 120.355 78.823C122.5 78.523 124.73 79.065 126.499 80.27C128.261 81.499 129.546 83.254 130.483 85.115C131.412 86.992 132.026 88.998 132.432 91.031C132.836 93.065 133.025 95.142 132.952 97.208Z" fill="#004ED5"/>
<path d="M353.769 149.371C349.741 148.521 345.508 148.403 341.551 149.423C339.589 149.939 337.686 150.79 336.219 152.155C334.778 153.523 333.862 155.433 333.715 157.392C333.558 159.356 334.296 161.316 335.531 162.844C336.145 163.616 336.892 164.283 337.715 164.818C338.537 165.342 339.463 165.748 340.379 165.826C340.832 165.863 341.276 165.8 341.61 165.603C341.784 165.514 341.914 165.373 342.029 165.219C342.093 165.147 342.122 165.044 342.174 164.961C342.216 164.873 342.202 164.805 342.233 164.73C342.266 164.037 341.547 163.178 340.844 162.545C339.373 161.219 337.563 160.227 335.72 159.403C332.015 157.783 327.928 156.843 323.898 157.152C321.896 157.324 319.903 157.798 318.139 158.748C316.38 159.692 314.802 160.982 313.625 162.643C312.938 163.397 312.477 164.302 311.948 165.164C311.656 165.583 311.528 166.082 311.309 166.538C311.128 167.01 310.871 167.456 310.768 167.955C310.123 169.885 309.932 171.935 309.938 173.971C310.035 178.061 311.242 182.111 313.156 185.761C312.072 184 311.251 182.081 310.614 180.108C309.997 178.13 309.545 176.08 309.448 173.989C309.388 171.906 309.542 169.787 310.164 167.77C310.262 167.25 310.515 166.78 310.693 166.285C310.909 165.806 311.036 165.282 311.327 164.84C311.855 163.93 312.322 162.974 313.015 162.174C314.188 160.425 315.864 158.985 317.736 157.982C319.612 156.955 321.72 156.439 323.822 156.244C328.052 155.893 332.273 156.835 336.124 158.488C338.035 159.362 339.895 160.387 341.492 161.844C341.893 162.203 342.261 162.616 342.591 163.076C342.89 163.553 343.214 164.098 343.161 164.823C343.106 165.204 342.971 165.495 342.788 165.752C342.599 166.011 342.357 166.25 342.073 166.4C341.508 166.722 340.877 166.781 340.308 166.732C339.158 166.62 338.145 166.146 337.235 165.563C336.331 164.966 335.524 164.233 334.857 163.384C333.507 161.714 332.724 159.503 332.952 157.332C333.161 155.177 334.209 153.134 335.792 151.695C337.398 150.268 339.404 149.429 341.433 148.952C343.475 148.487 345.569 148.357 347.641 148.437C349.714 148.517 351.777 148.818 353.769 149.371Z" fill="#004ED5"/>
<path d="M291.859 84.671C291.175 82.302 291.083 79.768 291.468 77.321C291.851 74.874 292.68 72.467 294.034 70.359C295.368 68.249 297.229 66.424 299.48 65.261C301.725 64.089 304.283 63.58 306.801 63.657C309.326 63.725 311.808 64.379 314.093 65.421C316.368 66.478 318.506 67.906 320.161 69.87C320.95 70.859 321.712 72.012 321.758 73.46C321.778 74.175 321.488 74.939 320.975 75.457C320.467 75.943 319.912 76.338 319.213 76.541C318.525 76.752 317.76 76.7 317.105 76.45C316.446 76.202 315.891 75.795 315.41 75.345C314.451 74.431 313.772 73.325 313.211 72.189C312.097 69.904 311.511 67.426 311.229 64.939C310.954 62.448 311.025 59.919 311.458 57.448C312.294 52.52 314.834 47.761 318.879 44.713C320.884 43.216 323.141 42.004 325.577 41.387C327.997 40.726 330.543 40.609 333.011 40.91C335.484 41.216 337.884 41.933 340.153 42.912C342.422 43.892 344.588 45.114 346.543 46.614C342.481 43.866 337.812 41.898 332.955 41.418C330.538 41.172 328.072 41.337 325.752 42.02C323.417 42.66 321.274 43.869 319.372 45.347C317.492 46.852 315.892 48.703 314.723 50.808C313.544 52.908 312.774 55.229 312.367 57.607C311.588 62.355 312.091 67.412 314.096 71.759C314.613 72.828 315.246 73.855 316.072 74.648C316.882 75.438 317.951 75.956 318.952 75.639C319.444 75.511 319.928 75.172 320.306 74.814C320.66 74.451 320.844 73.981 320.838 73.464C320.825 72.414 320.192 71.343 319.462 70.442C317.947 68.622 315.9 67.227 313.728 66.209C311.544 65.196 309.17 64.577 306.771 64.468C304.375 64.358 301.945 64.819 299.796 65.884C297.642 66.938 295.82 68.639 294.484 70.653C291.816 74.687 290.77 79.864 291.859 84.671Z" fill="#004ED5"/>
<path d="M183.255 341.771C181.582 341.244 179.799 342.173 179.272 343.845C178.744 345.52 179.674 347.301 181.347 347.829C183.019 348.357 184.8 347.428 185.328 345.755C185.855 344.083 184.927 342.298 183.255 341.771ZM184.959 345.637C184.496 347.108 182.931 347.923 181.463 347.46C179.994 346.997 179.178 345.433 179.642 343.962C180.105 342.494 181.67 341.678 183.14 342.142C184.607 342.604 185.422 344.169 184.959 345.637ZM183.255 341.771C181.582 341.244 179.799 342.173 179.272 343.845C178.744 345.52 179.674 347.301 181.347 347.829C183.019 348.357 184.8 347.428 185.328 345.755C185.855 344.083 184.927 342.298 183.255 341.771ZM184.959 345.637C184.496 347.108 182.931 347.923 181.463 347.46C179.994 346.997 179.178 345.433 179.642 343.962C180.105 342.494 181.67 341.678 183.14 342.142C184.607 342.604 185.422 344.169 184.959 345.637ZM183.255 341.771C181.582 341.244 179.799 342.173 179.272 343.845C178.744 345.52 179.674 347.301 181.347 347.829C183.019 348.357 184.8 347.428 185.328 345.755C185.855 344.083 184.927 342.298 183.255 341.771ZM184.959 345.637C184.496 347.108 182.931 347.923 181.463 347.46C179.994 346.997 179.178 345.433 179.642 343.962C180.105 342.494 181.67 341.678 183.14 342.142C184.607 342.604 185.422 344.169 184.959 345.637ZM184.313 338.416C180.785 337.305 177.028 339.265 175.917 342.788C174.806 346.313 176.763 350.073 180.289 351.184C183.812 352.294 187.572 350.336 188.683 346.811C189.795 343.288 187.837 339.526 184.313 338.416ZM185.799 345.902C185.191 347.833 183.127 348.908 181.199 348.301C179.27 347.693 178.193 345.629 178.802 343.698C179.411 341.768 181.476 340.694 183.405 341.302C185.332 341.909 186.407 343.973 185.799 345.902ZM185.328 345.754C185.855 344.082 184.927 342.298 183.255 341.771C181.582 341.243 179.799 342.172 179.272 343.844C178.744 345.519 179.674 347.301 181.347 347.829C183.019 348.356 184.8 347.428 185.328 345.754ZM184.959 345.637C184.496 347.108 182.931 347.923 181.463 347.46C179.994 346.997 179.178 345.433 179.642 343.962C180.105 342.494 181.67 341.678 183.14 342.142C184.607 342.604 185.422 344.169 184.959 345.637ZM183.255 341.771C181.582 341.244 179.799 342.173 179.272 343.845C178.744 345.52 179.674 347.301 181.347 347.829C183.019 348.357 184.8 347.428 185.328 345.755C185.855 344.083 184.927 342.298 183.255 341.771ZM184.959 345.637C184.496 347.108 182.931 347.923 181.463 347.46C179.994 346.997 179.178 345.433 179.642 343.962C180.105 342.494 181.67 341.678 183.14 342.142C184.607 342.604 185.422 344.169 184.959 345.637ZM183.255 341.771C181.582 341.244 179.799 342.173 179.272 343.845C178.744 345.52 179.674 347.301 181.347 347.829C183.019 348.357 184.8 347.428 185.328 345.755C185.855 344.083 184.927 342.298 183.255 341.771ZM184.959 345.637C184.496 347.108 182.931 347.923 181.463 347.46C179.994 346.997 179.178 345.433 179.642 343.962C180.105 342.494 181.67 341.678 183.14 342.142C184.607 342.604 185.422 344.169 184.959 345.637Z" fill="#004ED5"/>
<path d="M181.599 351.305L179.144 350.532L178.732 352.312L180.915 353L181.599 351.305Z" fill="#004ED5"/>
<path d="M177.188 349.006L175.999 346.723L174.449 347.691L175.506 349.722L177.188 349.006Z" fill="#004ED5"/>
<path d="M175.694 344.261L176.468 341.806L174.688 341.395L174 343.578L175.694 344.261Z" fill="#004ED5"/>
<path d="M177.995 339.85L180.277 338.661L179.309 337.111L177.279 338.168L177.995 339.85Z" fill="#004ED5"/>
<path d="M182.738 338.356L185.193 339.129L185.605 337.35L183.422 336.662L182.738 338.356Z" fill="#004ED5"/>
<path d="M187.148 340.655L188.337 342.938L189.888 341.97L188.83 339.94L187.148 340.655Z" fill="#004ED5"/>
<path d="M188.643 345.4L187.869 347.855L189.649 348.267L190.337 346.083L188.643 345.4Z" fill="#004ED5"/>
<path d="M186.343 349.811L184.061 351L185.028 352.55L187.059 351.493L186.343 349.811Z" fill="#004ED5"/>
<path d="M355.121 307.039C359.629 300.965 358.359 292.384 352.285 287.877C346.209 283.368 337.628 284.638 333.121 290.711C328.612 296.787 329.882 305.368 335.958 309.877C342.031 314.385 350.612 313.116 355.121 307.039ZM349.258 302.688C347.151 305.527 343.146 306.12 340.309 304.015C337.47 301.908 336.877 297.903 338.984 295.063C341.089 292.226 345.095 291.633 347.934 293.74C350.77 295.846 351.363 299.851 349.258 302.688Z" fill="#004ED5"/>
<path d="M338.411 310.989L334.181 307.85L332.193 311.018L335.955 313.81L338.411 310.989Z" fill="#004ED5"/>
<path d="M331.418 303.589L330.646 298.378L327 299.212L327.686 303.847L331.418 303.589Z" fill="#004ED5"/>
<path d="M331.705 293.411L334.845 289.181L331.677 287.193L328.885 290.955L331.705 293.411Z" fill="#004ED5"/>
<path d="M339.106 286.418L344.317 285.646L343.483 282L338.848 282.686L339.106 286.418Z" fill="#004ED5"/>
<path d="M349.283 286.705L353.513 289.845L355.501 286.677L351.739 283.885L349.283 286.705Z" fill="#004ED5"/>
<path d="M356.277 294.106L357.048 299.317L360.694 298.483L360.008 293.848L356.277 294.106Z" fill="#004ED5"/>
<path d="M355.99 304.284L352.85 308.514L356.018 310.502L358.81 306.74L355.99 304.284Z" fill="#004ED5"/>
<path d="M348.59 311.277L343.379 312.048L344.213 315.694L348.848 315.009L348.59 311.277Z" fill="#004ED5"/>
<path d="M339.215 299.533L342.125 303.203L346.759 302.515L348.479 298.162L345.572 294.494L340.938 295.178L339.215 299.533ZM344.731 297.655C345.391 298.145 345.528 299.072 345.038 299.732C344.55 300.389 343.621 300.529 342.961 300.039C342.304 299.551 342.166 298.619 342.654 297.962C343.144 297.303 344.074 297.168 344.731 297.655Z" fill="#004ED5"/>
<path d="M351.941 43.601C349.98 42.983 347.891 44.072 347.273 46.031C346.655 47.994 347.744 50.081 349.705 50.699C351.664 51.317 353.751 50.229 354.369 48.268C354.987 46.309 353.9 44.218 351.941 43.601ZM353.938 48.131C353.395 49.854 351.562 50.809 349.84 50.267C348.119 49.725 347.164 47.891 347.706 46.168C348.248 44.447 350.082 43.492 351.805 44.034C353.525 44.576 354.481 46.41 353.938 48.131ZM351.941 43.601C349.98 42.983 347.891 44.072 347.273 46.031C346.655 47.994 347.744 50.081 349.705 50.699C351.664 51.317 353.751 50.229 354.369 48.268C354.987 46.309 353.9 44.218 351.941 43.601ZM353.938 48.131C353.395 49.854 351.562 50.809 349.84 50.267C348.119 49.725 347.164 47.891 347.706 46.168C348.248 44.447 350.082 43.492 351.805 44.034C353.525 44.576 354.481 46.41 353.938 48.131ZM351.941 43.601C349.98 42.983 347.891 44.072 347.273 46.031C346.655 47.994 347.744 50.081 349.705 50.699C351.664 51.317 353.751 50.229 354.369 48.268C354.987 46.309 353.9 44.218 351.941 43.601ZM353.938 48.131C353.395 49.854 351.562 50.809 349.84 50.267C348.119 49.725 347.164 47.891 347.706 46.168C348.248 44.447 350.082 43.492 351.805 44.034C353.525 44.576 354.481 46.41 353.938 48.131ZM353.182 39.67C349.048 38.368 344.645 40.665 343.343 44.793C342.042 48.923 344.334 53.329 348.467 54.63C352.596 55.931 357.001 53.637 358.302 49.506C359.604 45.378 357.31 40.97 353.182 39.67ZM354.923 48.441C354.21 50.703 351.792 51.964 349.531 51.251C347.27 50.538 346.01 48.12 346.723 45.858C347.436 43.596 349.856 42.337 352.116 43.05C354.375 43.762 355.635 46.18 354.923 48.441ZM354.37 48.268C354.988 46.309 353.901 44.218 351.942 43.601C349.981 42.983 347.892 44.072 347.274 46.031C346.656 47.994 347.745 50.081 349.706 50.699C351.665 51.316 353.752 50.229 354.37 48.268ZM353.938 48.131C353.395 49.854 351.562 50.809 349.84 50.267C348.119 49.725 347.164 47.891 347.706 46.168C348.248 44.447 350.082 43.492 351.805 44.034C353.525 44.576 354.481 46.41 353.938 48.131ZM351.941 43.601C349.98 42.983 347.891 44.072 347.273 46.031C346.655 47.994 347.744 50.081 349.705 50.699C351.664 51.317 353.751 50.229 354.369 48.268C354.987 46.309 353.9 44.218 351.941 43.601ZM353.938 48.131C353.395 49.854 351.562 50.809 349.84 50.267C348.119 49.725 347.164 47.891 347.706 46.168C348.248 44.447 350.082 43.492 351.805 44.034C353.525 44.576 354.481 46.41 353.938 48.131ZM351.941 43.601C349.98 42.983 347.891 44.072 347.273 46.031C346.655 47.994 347.744 50.081 349.705 50.699C351.664 51.317 353.751 50.229 354.369 48.268C354.987 46.309 353.9 44.218 351.941 43.601ZM353.938 48.131C353.395 49.854 351.562 50.809 349.84 50.267C348.119 49.725 347.164 47.891 347.706 46.168C348.248 44.447 350.082 43.492 351.805 44.034C353.525 44.576 354.481 46.41 353.938 48.131Z" fill="#004ED5"/>
<path d="M350.003 54.772L347.127 53.866L346.645 55.952L349.203 56.758L350.003 54.772Z" fill="#004ED5"/>
<path d="M344.832 52.078L343.439 49.404L341.623 50.537L342.862 52.916L344.832 52.078Z" fill="#004ED5"/>
<path d="M343.083 46.518L343.99 43.642L341.904 43.16L341.098 45.718L343.083 46.518Z" fill="#004ED5"/>
<path d="M345.777 41.349L348.452 39.956L347.318 38.14L344.939 39.379L345.777 41.349Z" fill="#004ED5"/>
<path d="M351.336 39.599L354.212 40.505L354.695 38.419L352.137 37.613L351.336 39.599Z" fill="#004ED5"/>
<path d="M356.506 42.293L357.899 44.968L359.715 43.834L358.476 41.455L356.506 42.293Z" fill="#004ED5"/>
<path d="M358.256 47.853L357.35 50.729L359.436 51.212L360.242 48.654L358.256 47.853Z" fill="#004ED5"/>
<path d="M355.561 53.022L352.887 54.415L354.02 56.231L356.399 54.992L355.561 53.022Z" fill="#004ED5"/>
<path d="M313.727 186.466C311.766 185.848 309.677 186.937 309.059 188.896C308.441 190.859 309.53 192.946 311.491 193.564C313.45 194.182 315.537 193.094 316.155 191.133C316.772 189.174 315.686 187.083 313.727 186.466ZM315.723 190.996C315.18 192.719 313.347 193.674 311.626 193.132C309.905 192.59 308.95 190.756 309.492 189.033C310.034 187.312 311.868 186.357 313.591 186.899C315.31 187.441 316.266 189.275 315.723 190.996ZM313.727 186.466C311.766 185.848 309.677 186.937 309.059 188.896C308.441 190.859 309.53 192.946 311.491 193.564C313.45 194.182 315.537 193.094 316.155 191.133C316.772 189.174 315.686 187.083 313.727 186.466ZM315.723 190.996C315.18 192.719 313.347 193.674 311.626 193.132C309.905 192.59 308.95 190.756 309.492 189.033C310.034 187.312 311.868 186.357 313.591 186.899C315.31 187.441 316.266 189.275 315.723 190.996ZM313.727 186.466C311.766 185.848 309.677 186.937 309.059 188.896C308.441 190.859 309.53 192.946 311.491 193.564C313.45 194.182 315.537 193.094 316.155 191.133C316.772 189.174 315.686 187.083 313.727 186.466ZM315.723 190.996C315.18 192.719 313.347 193.674 311.626 193.132C309.905 192.59 308.95 190.756 309.492 189.033C310.034 187.312 311.868 186.357 313.591 186.899C315.31 187.441 316.266 189.275 315.723 190.996ZM314.967 182.535C310.833 181.233 306.43 183.53 305.128 187.658C303.827 191.789 306.119 196.194 310.252 197.495C314.381 198.796 318.786 196.502 320.087 192.371C321.389 188.243 319.095 183.835 314.967 182.535ZM316.708 191.306C315.995 193.568 313.577 194.829 311.316 194.116C309.056 193.404 307.795 190.985 308.508 188.723C309.221 186.461 311.641 185.202 313.901 185.915C316.16 186.627 317.42 189.045 316.708 191.306ZM316.155 191.133C316.772 189.174 315.686 187.083 313.727 186.466C311.766 185.848 309.677 186.937 309.059 188.896C308.441 190.859 309.53 192.946 311.491 193.564C313.45 194.182 315.537 193.094 316.155 191.133ZM315.723 190.996C315.18 192.719 313.347 193.674 311.626 193.132C309.905 192.59 308.95 190.756 309.492 189.033C310.034 187.312 311.868 186.357 313.591 186.899C315.31 187.441 316.266 189.275 315.723 190.996ZM313.727 186.466C311.766 185.848 309.677 186.937 309.059 188.896C308.441 190.859 309.53 192.946 311.491 193.564C313.45 194.182 315.537 193.094 316.155 191.133C316.772 189.174 315.686 187.083 313.727 186.466ZM315.723 190.996C315.18 192.719 313.347 193.674 311.626 193.132C309.905 192.59 308.95 190.756 309.492 189.033C310.034 187.312 311.868 186.357 313.591 186.899C315.31 187.441 316.266 189.275 315.723 190.996ZM313.727 186.466C311.766 185.848 309.677 186.937 309.059 188.896C308.441 190.859 309.53 192.946 311.491 193.564C313.45 194.182 315.537 193.094 316.155 191.133C316.772 189.174 315.686 187.083 313.727 186.466ZM315.723 190.996C315.18 192.719 313.347 193.674 311.626 193.132C309.905 192.59 308.95 190.756 309.492 189.033C310.034 187.312 311.868 186.357 313.591 186.899C315.31 187.441 316.266 189.275 315.723 190.996Z" fill="#004ED5"/>
<path d="M311.788 197.637L308.912 196.731L308.43 198.817L310.988 199.623L311.788 197.637Z" fill="#004ED5"/>
<path d="M306.617 194.943L305.225 192.269L303.408 193.402L304.647 195.781L306.617 194.943Z" fill="#004ED5"/>
<path d="M304.868 189.383L305.775 186.507L303.689 186.025L302.883 188.583L304.868 189.383Z" fill="#004ED5"/>
<path d="M307.563 184.214L310.238 182.822L309.104 181.005L306.725 182.244L307.563 184.214Z" fill="#004ED5"/>
<path d="M313.121 182.464L315.997 183.371L316.48 181.285L313.922 180.479L313.121 182.464Z" fill="#004ED5"/>
<path d="M318.291 185.158L319.684 187.833L321.5 186.699L320.261 184.32L318.291 185.158Z" fill="#004ED5"/>
<path d="M320.041 190.718L319.135 193.594L321.221 194.077L322.027 191.519L320.041 190.718Z" fill="#004ED5"/>
<path d="M317.346 195.887L314.672 197.28L315.805 199.096L318.184 197.857L317.346 195.887Z" fill="#004ED5"/>
<path d="M95.0207 73.993C96.5627 67.665 92.6817 61.284 86.3537 59.742C80.0237 58.2 73.6417 62.081 72.0997 68.409C70.5577 74.739 74.4387 81.121 80.7687 82.663C87.0977 84.204 93.4787 80.323 95.0207 73.993ZM88.9127 72.505C88.1917 75.463 85.2137 77.275 82.2577 76.554C79.2997 75.833 77.4877 72.855 78.2087 69.897C78.9287 66.941 81.9077 65.13 84.8657 65.851C87.8207 66.571 89.6327 69.549 88.9127 72.505Z" fill="#004ED5"/>
<path d="M83.0871 82.723L78.6801 81.649L78.1641 84.828L82.0831 85.783L83.0871 82.723Z" fill="#004ED5"/>
<path d="M75.0618 79.195L72.7048 75.319L70.0918 77.202L72.1878 80.649L75.0618 79.195Z" fill="#004ED5"/>
<path d="M71.8803 71.024L72.9543 66.618L69.7753 66.101L68.8203 70.021L71.8803 71.024Z" fill="#004ED5"/>
<path d="M75.4091 62.998L79.2841 60.641L77.4021 58.028L73.9551 60.125L75.4091 62.998Z" fill="#004ED5"/>
<path d="M83.5801 59.818L87.9871 60.892L88.5041 57.713L84.5841 56.758L83.5801 59.818Z" fill="#004ED5"/>
<path d="M91.6055 63.346L93.9625 67.222L96.5755 65.339L94.4795 61.892L91.6055 63.346Z" fill="#004ED5"/>
<path d="M94.7869 71.517L93.7129 75.924L96.8919 76.44L97.8469 72.52L94.7869 71.517Z" fill="#004ED5"/>
<path d="M91.2578 79.543L87.3828 81.9L89.2658 84.513L92.7128 82.416L91.2578 79.543Z" fill="#004ED5"/>
<path d="M79.8879 73.366L83.4249 75.303L86.8699 73.205L86.7769 69.176L83.2419 67.24L79.7949 69.334L79.8879 73.366ZM83.6349 70.029C84.3229 70.196 84.7419 70.886 84.5739 71.574C84.4069 72.259 83.7169 72.681 83.0289 72.513C82.3439 72.346 81.9229 71.653 82.0899 70.968C82.2579 70.281 82.9499 69.862 83.6349 70.029Z" fill="#004ED5"/>
<path d="M361.589 195.938C358.899 191.842 357.387 187.235 357.387 182.365C357.387 165.169 376.27 151.227 399.549 151.227C422.828 151.227 441.694 165.17 441.694 182.365C441.694 199.56 422.828 213.503 399.549 213.503C388.261 213.503 378.028 210.233 370.468 204.888L355.945 208.581L361.589 195.938Z" fill="#F6F9FF"/>
<path d="M361.59 195.938C359.052 192.157 357.461 187.692 357.294 183.105C357.168 178.528 358.296 173.897 360.647 169.936C362.945 165.946 366.22 162.582 369.92 159.876C373.624 157.155 377.795 155.1 382.148 153.655C386.502 152.2 391.039 151.328 395.615 150.962C400.198 150.627 404.812 150.911 409.341 151.66C410.466 151.891 411.608 152.045 412.719 152.34L416.049 153.236L419.302 154.385C420.384 154.775 421.412 155.302 422.47 155.754C426.622 157.729 430.515 160.317 433.789 163.584C437.055 166.838 439.689 170.814 441.078 175.263C442.464 179.696 442.565 184.562 441.216 189.02C439.904 193.493 437.331 197.51 434.109 200.807C430.88 204.117 427.018 206.751 422.887 208.771C418.757 210.815 414.307 212.146 409.794 212.966C405.273 213.742 400.66 214.074 396.082 213.751C391.505 213.462 386.958 212.626 382.602 211.188C378.251 209.755 374.064 207.754 370.338 205.075L370.526 205.11L355.974 208.688L355.754 208.742L355.847 208.537L361.59 195.938ZM361.59 195.938L356.046 208.624L355.919 208.473L370.413 204.666L370.513 204.64L370.601 204.701C378.079 209.863 387.098 212.55 396.125 213.033C400.649 213.312 405.199 212.942 409.643 212.139C414.083 211.314 418.457 209.995 422.501 207.977C426.547 205.984 430.316 203.394 433.447 200.164C436.572 196.946 439.042 193.053 440.291 188.752C441.578 184.464 441.455 179.808 440.126 175.556C438.805 171.283 436.279 167.432 433.112 164.258C429.939 161.073 426.143 158.529 422.078 156.581C421.042 156.135 420.036 155.614 418.975 155.229L415.784 154.091L412.513 153.201C411.422 152.907 410.298 152.754 409.192 152.523C404.737 151.767 400.192 151.493 395.673 151.783C391.16 152.104 386.678 152.924 382.372 154.321C378.066 155.708 373.936 157.698 370.263 160.347C366.59 162.98 363.354 166.27 361.02 170.153C358.644 174.016 357.459 178.56 357.511 183.098C357.602 187.645 359.111 192.118 361.59 195.938Z" fill="#001E60"/>
<path d="M377.861 187.463V189.778H368.426V176.19H377.689V178.506H371.068V181.778H376.79V183.922H371.068V187.462L377.861 187.463Z" fill="#001E60"/>
<path d="M379.93 189.779V176.191H385.94C386.565 176.191 387.142 176.322 387.671 176.584C388.2 176.846 388.656 177.19 389.039 177.617C389.422 178.045 389.722 178.53 389.938 179.072C390.155 179.614 390.263 180.16 390.263 180.708C390.263 181.588 390.043 182.389 389.603 183.11C389.164 183.831 388.567 184.351 387.814 184.669L390.915 189.779H387.948L385.174 185.224H382.571V189.779H379.93ZM382.571 182.908H385.882C386.124 182.908 386.351 182.851 386.561 182.736C386.772 182.621 386.953 182.465 387.107 182.267C387.26 182.07 387.381 181.837 387.47 181.569C387.56 181.301 387.605 181.014 387.605 180.708C387.605 180.389 387.553 180.096 387.452 179.828C387.349 179.56 387.213 179.328 387.04 179.13C386.868 178.932 386.67 178.779 386.447 178.67C386.223 178.562 385.997 178.507 385.767 178.507H382.572V182.908H382.571Z" fill="#001E60"/>
<path d="M392.654 189.779V176.191H398.664C399.289 176.191 399.866 176.322 400.395 176.584C400.924 176.846 401.38 177.19 401.763 177.617C402.146 178.045 402.446 178.53 402.662 179.072C402.879 179.614 402.987 180.16 402.987 180.708C402.987 181.588 402.767 182.389 402.327 183.11C401.888 183.831 401.291 184.351 400.538 184.669L403.638 189.779H400.671L397.896 185.224H395.294V189.779H392.654ZM395.296 182.908H398.606C398.848 182.908 399.075 182.851 399.285 182.736C399.496 182.621 399.677 182.465 399.831 182.267C399.984 182.07 400.105 181.837 400.194 181.569C400.284 181.301 400.329 181.014 400.329 180.708C400.329 180.389 400.277 180.096 400.176 179.828C400.073 179.56 399.937 179.328 399.764 179.13C399.592 178.932 399.394 178.779 399.171 178.67C398.947 178.562 398.721 178.507 398.491 178.507H395.296V182.908Z" fill="#001E60"/>
<path d="M411.18 189.874C410.185 189.874 409.283 189.68 408.472 189.291C407.661 188.902 406.966 188.385 406.386 187.741C405.805 187.097 405.356 186.36 405.036 185.531C404.718 184.702 404.559 183.853 404.559 182.986C404.559 182.08 404.728 181.213 405.066 180.383C405.404 179.554 405.87 178.82 406.462 178.182C407.056 177.544 407.761 177.037 408.577 176.661C409.393 176.285 410.28 176.096 411.237 176.096C412.219 176.096 413.115 176.297 413.926 176.699C414.737 177.101 415.429 177.627 416.002 178.278C416.576 178.928 417.023 179.669 417.342 180.498C417.661 181.328 417.82 182.169 417.82 183.024C417.82 183.93 417.654 184.794 417.323 185.617C416.991 186.44 416.531 187.167 415.945 187.799C415.358 188.431 414.656 188.935 413.84 189.311C413.023 189.686 412.137 189.874 411.18 189.874ZM407.237 182.985C407.237 183.572 407.326 184.14 407.505 184.688C407.684 185.237 407.943 185.722 408.28 186.143C408.618 186.564 409.033 186.902 409.524 187.157C410.015 187.412 410.573 187.54 411.199 187.54C411.837 187.54 412.401 187.41 412.892 187.148C413.383 186.887 413.797 186.539 414.136 186.105C414.474 185.671 414.729 185.183 414.902 184.641C415.074 184.099 415.16 183.547 415.16 182.986C415.16 182.4 415.067 181.832 414.883 181.283C414.698 180.735 414.437 180.249 414.099 179.828C413.76 179.407 413.346 179.072 412.855 178.824C412.364 178.575 411.812 178.45 411.2 178.45C410.561 178.45 409.994 178.581 409.497 178.843C408.999 179.105 408.584 179.449 408.253 179.876C407.921 180.304 407.669 180.789 407.497 181.331C407.323 181.872 407.237 182.424 407.237 182.985Z" fill="#001E60"/>
<path d="M419.85 189.779V176.191H425.86C426.485 176.191 427.062 176.322 427.591 176.584C428.12 176.846 428.576 177.19 428.959 177.617C429.342 178.045 429.642 178.53 429.858 179.072C430.075 179.614 430.183 180.16 430.183 180.708C430.183 181.588 429.963 182.389 429.523 183.11C429.084 183.831 428.487 184.351 427.734 184.669L430.835 189.779H427.868L425.094 185.224H422.491V189.779H419.85ZM422.491 182.908H425.802C426.044 182.908 426.271 182.851 426.481 182.736C426.692 182.621 426.874 182.465 427.027 182.267C427.18 182.07 427.301 181.837 427.39 181.569C427.48 181.301 427.525 181.014 427.525 180.708C427.525 180.389 427.473 180.096 427.372 179.828C427.269 179.56 427.133 179.328 426.96 179.13C426.788 178.932 426.59 178.779 426.367 178.67C426.143 178.562 425.917 178.507 425.687 178.507H422.492V182.908H422.491Z" fill="#001E60"/>
</g>
<defs>
<clipPath id="clip0_3530_3787">
<rect width="500" height="427" fill="white"/>
</clipPath>
</defs>
</svg>
