<svg width="14" height="19" viewBox="0 0 14 19" fill="none" xmlns="http://www.w3.org/2000/svg">
<path id="Vector" d="M7 0.666687C5.14416 0.668899 3.36495 1.41463 2.05267 2.7403C0.740394 4.06597 0.00219378 5.86334 4.39357e-06 7.73812C-0.00170191 9.2701 0.493636 10.7604 1.41019 11.981C1.41019 11.981 1.60109 12.2349 1.63228 12.2715L7 18.6667L12.3703 12.2683C12.3983 12.2343 12.5898 11.981 12.5898 11.981L12.5905 11.979C13.5064 10.759 14.0015 9.26937 14 7.73812C13.9978 5.86334 13.2596 4.06597 11.9473 2.7403C10.635 1.41463 8.85584 0.668899 7 0.666687ZM7 10.3095C6.49656 10.3095 6.00442 10.1587 5.58582 9.87618C5.16723 9.59363 4.84097 9.19203 4.64831 8.72216C4.45565 8.25229 4.40524 7.73526 4.50346 7.23645C4.60167 6.73765 4.84411 6.27946 5.20009 5.91984C5.55608 5.56022 6.00964 5.31532 6.50341 5.2161C6.99718 5.11688 7.50898 5.1678 7.9741 5.36242C8.43922 5.55705 8.83677 5.88664 9.11647 6.30951C9.39617 6.73238 9.54545 7.22954 9.54545 7.73812C9.54461 8.41984 9.27616 9.0734 8.79898 9.55545C8.3218 10.0375 7.67484 10.3087 7 10.3095Z" fill="#004ED5"/>
</svg>
